<mxfile host="app.diagrams.net" modified="2024-03-14T09:17:11.169Z" agent="Mozilla/5.0 (Windows NT 10.0; Win64; x64) AppleWebKit/537.36 (KHTML, like Gecko) Chrome/122.0.0.0 Safari/537.36" etag="07-ZHA6HdRudFWsU3ITR" version="24.0.6" type="device">
  <diagram name="Page-1" id="Bwhazjk6Eb09M3KQQNMI">
    <mxGraphModel dx="2970" dy="1722" grid="1" gridSize="10" guides="0" tooltips="1" connect="1" arrows="1" fold="1" page="1" pageScale="1" pageWidth="1920" pageHeight="1200" background="#FFFFFF" math="0" shadow="0">
      <root>
        <mxCell id="0" />
        <mxCell id="1" parent="0" />
        <mxCell id="o6uIntPfX_4QwC0KGmvb-2" value="&lt;h3&gt;&lt;font face=&quot;Times New Roman&quot; style=&quot;font-size: 28px;&quot;&gt;&lt;b&gt;Film&lt;/b&gt;&lt;/font&gt;&lt;/h3&gt;" style="rounded=0;whiteSpace=wrap;html=1;strokeColor=#000000;fillColor=#FFFFFF;" parent="1" vertex="1">
          <mxGeometry x="590" y="880" width="120" height="60" as="geometry" />
        </mxCell>
        <mxCell id="o6uIntPfX_4QwC0KGmvb-3" value="&lt;h3&gt;&lt;font face=&quot;Times New Roman&quot; style=&quot;font-size: 28px;&quot;&gt;&lt;b style=&quot;&quot;&gt;Actor&lt;/b&gt;&lt;/font&gt;&lt;/h3&gt;" style="rounded=0;whiteSpace=wrap;html=1;strokeColor=#000000;fillColor=#FFFFFF;" parent="1" vertex="1">
          <mxGeometry x="80" y="810" width="120" height="60" as="geometry" />
        </mxCell>
        <mxCell id="o6uIntPfX_4QwC0KGmvb-4" value="&lt;h3&gt;&lt;font face=&quot;Times New Roman&quot; style=&quot;font-size: 28px;&quot;&gt;&lt;b&gt;Categery&lt;/b&gt;&lt;/font&gt;&lt;/h3&gt;" style="rounded=0;whiteSpace=wrap;html=1;strokeColor=#000000;fillColor=#FFFFFF;" parent="1" vertex="1">
          <mxGeometry x="80" y="970" width="120" height="60" as="geometry" />
        </mxCell>
        <mxCell id="o6uIntPfX_4QwC0KGmvb-5" value="&lt;h3&gt;&lt;font face=&quot;Times New Roman&quot; style=&quot;font-size: 28px;&quot;&gt;&lt;b&gt;Languge&lt;/b&gt;&lt;/font&gt;&lt;/h3&gt;" style="rounded=0;whiteSpace=wrap;html=1;strokeColor=#000000;fillColor=#FFFFFF;" parent="1" vertex="1">
          <mxGeometry x="30" y="1150" width="120" height="60" as="geometry" />
        </mxCell>
        <mxCell id="o6uIntPfX_4QwC0KGmvb-6" value="&lt;font face=&quot;Times New Roman&quot; size=&quot;1&quot; style=&quot;&quot;&gt;&lt;b style=&quot;font-size: 20px;&quot;&gt;Act&lt;/b&gt;&lt;/font&gt;" style="rhombus;whiteSpace=wrap;html=1;" parent="1" vertex="1">
          <mxGeometry x="290" y="790" width="100" height="100" as="geometry" />
        </mxCell>
        <mxCell id="o6uIntPfX_4QwC0KGmvb-7" value="" style="endArrow=none;html=1;rounded=0;exitX=1;exitY=0.5;exitDx=0;exitDy=0;entryX=0;entryY=0.25;entryDx=0;entryDy=0;strokeColor=#000000;" parent="1" source="o6uIntPfX_4QwC0KGmvb-6" target="o6uIntPfX_4QwC0KGmvb-2" edge="1">
          <mxGeometry width="50" height="50" relative="1" as="geometry">
            <mxPoint x="450" y="790" as="sourcePoint" />
            <mxPoint x="500" y="740" as="targetPoint" />
          </mxGeometry>
        </mxCell>
        <mxCell id="o6uIntPfX_4QwC0KGmvb-8" value="" style="endArrow=none;html=1;rounded=0;exitX=1;exitY=0.5;exitDx=0;exitDy=0;entryX=0;entryY=0.5;entryDx=0;entryDy=0;strokeColor=#000000;" parent="1" source="o6uIntPfX_4QwC0KGmvb-3" target="o6uIntPfX_4QwC0KGmvb-6" edge="1">
          <mxGeometry width="50" height="50" relative="1" as="geometry">
            <mxPoint x="460" y="830" as="sourcePoint" />
            <mxPoint x="600" y="920" as="targetPoint" />
          </mxGeometry>
        </mxCell>
        <mxCell id="o6uIntPfX_4QwC0KGmvb-11" value="&lt;font face=&quot;Times New Roman&quot; size=&quot;1&quot; style=&quot;&quot;&gt;&lt;b style=&quot;font-size: 20px;&quot;&gt;Speak&lt;/b&gt;&lt;/font&gt;" style="rhombus;whiteSpace=wrap;html=1;rotation=0;" parent="1" vertex="1">
          <mxGeometry x="230" y="1070" width="80" height="90" as="geometry" />
        </mxCell>
        <mxCell id="o6uIntPfX_4QwC0KGmvb-12" value="" style="endArrow=none;html=1;rounded=0;exitX=1;exitY=0.5;exitDx=0;exitDy=0;entryX=0;entryY=0.75;entryDx=0;entryDy=0;strokeColor=#000000;" parent="1" source="o6uIntPfX_4QwC0KGmvb-11" target="o6uIntPfX_4QwC0KGmvb-2" edge="1">
          <mxGeometry width="50" height="50" relative="1" as="geometry">
            <mxPoint x="460" y="800" as="sourcePoint" />
            <mxPoint x="600" y="920" as="targetPoint" />
          </mxGeometry>
        </mxCell>
        <mxCell id="o6uIntPfX_4QwC0KGmvb-13" value="" style="endArrow=none;html=1;rounded=0;exitX=1;exitY=0.5;exitDx=0;exitDy=0;entryX=0;entryY=0.5;entryDx=0;entryDy=0;strokeColor=#000000;" parent="1" source="o6uIntPfX_4QwC0KGmvb-5" target="o6uIntPfX_4QwC0KGmvb-11" edge="1">
          <mxGeometry width="50" height="50" relative="1" as="geometry">
            <mxPoint x="250" y="800" as="sourcePoint" />
            <mxPoint x="610" y="930" as="targetPoint" />
          </mxGeometry>
        </mxCell>
        <mxCell id="o6uIntPfX_4QwC0KGmvb-14" value="&lt;font face=&quot;Times New Roman&quot;&gt;&lt;span style=&quot;font-size: 20px;&quot;&gt;&lt;b style=&quot;font-size: 15px;&quot;&gt;Categorize&lt;/b&gt;&lt;/span&gt;&lt;/font&gt;" style="rhombus;whiteSpace=wrap;html=1;" parent="1" vertex="1">
          <mxGeometry x="270" y="920" width="100" height="110" as="geometry" />
        </mxCell>
        <mxCell id="o6uIntPfX_4QwC0KGmvb-15" value="" style="endArrow=none;html=1;rounded=0;exitX=1;exitY=0.5;exitDx=0;exitDy=0;entryX=0;entryY=0.5;entryDx=0;entryDy=0;strokeColor=#000000;" parent="1" source="o6uIntPfX_4QwC0KGmvb-14" target="o6uIntPfX_4QwC0KGmvb-2" edge="1">
          <mxGeometry width="50" height="50" relative="1" as="geometry">
            <mxPoint x="460" y="920" as="sourcePoint" />
            <mxPoint x="600" y="1040" as="targetPoint" />
          </mxGeometry>
        </mxCell>
        <mxCell id="o6uIntPfX_4QwC0KGmvb-16" value="" style="endArrow=none;html=1;rounded=0;exitX=1;exitY=0.5;exitDx=0;exitDy=0;entryX=0;entryY=0.5;entryDx=0;entryDy=0;strokeColor=#000000;" parent="1" source="o6uIntPfX_4QwC0KGmvb-4" target="o6uIntPfX_4QwC0KGmvb-14" edge="1">
          <mxGeometry width="50" height="50" relative="1" as="geometry">
            <mxPoint x="250" y="920" as="sourcePoint" />
            <mxPoint x="610" y="1050" as="targetPoint" />
          </mxGeometry>
        </mxCell>
        <mxCell id="o6uIntPfX_4QwC0KGmvb-17" value="&lt;font face=&quot;Times New Roman&quot; style=&quot;font-size: 16px;&quot;&gt;&lt;b&gt;ID&lt;/b&gt;&lt;/font&gt;" style="ellipse;whiteSpace=wrap;html=1;" parent="1" vertex="1">
          <mxGeometry x="-90" y="960" width="90" height="50" as="geometry" />
        </mxCell>
        <mxCell id="o6uIntPfX_4QwC0KGmvb-20" value="" style="endArrow=none;html=1;rounded=0;exitX=1;exitY=0.5;exitDx=0;exitDy=0;entryX=0;entryY=0.5;entryDx=0;entryDy=0;strokeColor=#000000;" parent="1" source="o6uIntPfX_4QwC0KGmvb-17" target="o6uIntPfX_4QwC0KGmvb-4" edge="1">
          <mxGeometry width="50" height="50" relative="1" as="geometry">
            <mxPoint x="450" y="900" as="sourcePoint" />
            <mxPoint x="500" y="850" as="targetPoint" />
          </mxGeometry>
        </mxCell>
        <mxCell id="o6uIntPfX_4QwC0KGmvb-21" value="&lt;font style=&quot;font-size: 16px;&quot;&gt;&lt;b&gt;Name&lt;/b&gt;&lt;/font&gt;" style="ellipse;whiteSpace=wrap;html=1;" parent="1" vertex="1">
          <mxGeometry x="-92" y="1021" width="90" height="50" as="geometry" />
        </mxCell>
        <mxCell id="o6uIntPfX_4QwC0KGmvb-22" value="" style="endArrow=none;html=1;rounded=0;exitX=1;exitY=0.5;exitDx=0;exitDy=0;entryX=0;entryY=0.5;entryDx=0;entryDy=0;strokeColor=#000000;" parent="1" source="o6uIntPfX_4QwC0KGmvb-21" target="o6uIntPfX_4QwC0KGmvb-4" edge="1">
          <mxGeometry width="50" height="50" relative="1" as="geometry">
            <mxPoint x="450" y="960" as="sourcePoint" />
            <mxPoint x="120" y="995" as="targetPoint" />
          </mxGeometry>
        </mxCell>
        <mxCell id="o6uIntPfX_4QwC0KGmvb-23" value="&lt;font style=&quot;font-size: 14px;&quot;&gt;&lt;b&gt;LastUpdate&lt;/b&gt;&lt;/font&gt;" style="ellipse;whiteSpace=wrap;html=1;strokeColor=#000000;" parent="1" vertex="1">
          <mxGeometry x="-100" y="1080" width="100" height="50" as="geometry" />
        </mxCell>
        <mxCell id="o6uIntPfX_4QwC0KGmvb-24" value="" style="endArrow=none;html=1;rounded=0;exitX=1;exitY=0.5;exitDx=0;exitDy=0;entryX=0;entryY=0.5;entryDx=0;entryDy=0;strokeColor=#000000;" parent="1" source="o6uIntPfX_4QwC0KGmvb-23" target="o6uIntPfX_4QwC0KGmvb-4" edge="1">
          <mxGeometry width="50" height="50" relative="1" as="geometry">
            <mxPoint x="460" y="1050" as="sourcePoint" />
            <mxPoint x="130" y="1040" as="targetPoint" />
          </mxGeometry>
        </mxCell>
        <mxCell id="o6uIntPfX_4QwC0KGmvb-27" value="&lt;font style=&quot;font-size: 14px;&quot;&gt;&lt;b&gt;L_Name&lt;/b&gt;&lt;/font&gt;" style="ellipse;whiteSpace=wrap;html=1;strokeColor=#000000;" parent="1" vertex="1">
          <mxGeometry x="-80" y="820" width="90" height="50" as="geometry" />
        </mxCell>
        <mxCell id="o6uIntPfX_4QwC0KGmvb-28" value="" style="endArrow=none;html=1;rounded=0;exitX=1;exitY=0.5;exitDx=0;exitDy=0;entryX=0;entryY=0.5;entryDx=0;entryDy=0;strokeColor=#000000;" parent="1" source="o6uIntPfX_4QwC0KGmvb-27" target="o6uIntPfX_4QwC0KGmvb-3" edge="1">
          <mxGeometry width="50" height="50" relative="1" as="geometry">
            <mxPoint x="450" y="840" as="sourcePoint" />
            <mxPoint x="110" y="740" as="targetPoint" />
          </mxGeometry>
        </mxCell>
        <mxCell id="o6uIntPfX_4QwC0KGmvb-29" value="&lt;font style=&quot;font-size: 14px;&quot;&gt;&lt;b&gt;F_Name&lt;/b&gt;&lt;/font&gt;" style="ellipse;whiteSpace=wrap;html=1;strokeColor=#000000;" parent="1" vertex="1">
          <mxGeometry x="-80" y="760" width="90" height="50" as="geometry" />
        </mxCell>
        <mxCell id="o6uIntPfX_4QwC0KGmvb-30" value="" style="endArrow=none;html=1;rounded=0;exitX=1;exitY=0.5;exitDx=0;exitDy=0;entryX=0;entryY=0.5;entryDx=0;entryDy=0;strokeColor=#000000;" parent="1" source="o6uIntPfX_4QwC0KGmvb-29" target="o6uIntPfX_4QwC0KGmvb-3" edge="1">
          <mxGeometry width="50" height="50" relative="1" as="geometry">
            <mxPoint x="450" y="780" as="sourcePoint" />
            <mxPoint x="120" y="730" as="targetPoint" />
          </mxGeometry>
        </mxCell>
        <mxCell id="o6uIntPfX_4QwC0KGmvb-31" value="&lt;font style=&quot;font-size: 14px;&quot;&gt;&lt;b&gt;ID&lt;/b&gt;&lt;/font&gt;" style="ellipse;whiteSpace=wrap;html=1;strokeColor=#000000;" parent="1" vertex="1">
          <mxGeometry x="-80" y="700" width="90" height="50" as="geometry" />
        </mxCell>
        <mxCell id="o6uIntPfX_4QwC0KGmvb-32" value="" style="endArrow=none;html=1;rounded=0;exitX=1;exitY=0.5;exitDx=0;exitDy=0;entryX=0;entryY=0.5;entryDx=0;entryDy=0;strokeColor=#000000;" parent="1" source="o6uIntPfX_4QwC0KGmvb-31" target="o6uIntPfX_4QwC0KGmvb-3" edge="1">
          <mxGeometry width="50" height="50" relative="1" as="geometry">
            <mxPoint x="450" y="720" as="sourcePoint" />
            <mxPoint x="120" y="670" as="targetPoint" />
          </mxGeometry>
        </mxCell>
        <mxCell id="o6uIntPfX_4QwC0KGmvb-33" value="&lt;font style=&quot;font-size: 14px;&quot;&gt;&lt;b&gt;LastUpdate&lt;/b&gt;&lt;/font&gt;" style="ellipse;whiteSpace=wrap;html=1;strokeColor=#000000;" parent="1" vertex="1">
          <mxGeometry x="-90" y="880" width="100" height="50" as="geometry" />
        </mxCell>
        <mxCell id="o6uIntPfX_4QwC0KGmvb-34" value="" style="endArrow=none;html=1;rounded=0;exitX=1;exitY=0.5;exitDx=0;exitDy=0;entryX=0;entryY=0.5;entryDx=0;entryDy=0;strokeColor=#000000;" parent="1" source="o6uIntPfX_4QwC0KGmvb-33" target="o6uIntPfX_4QwC0KGmvb-3" edge="1">
          <mxGeometry width="50" height="50" relative="1" as="geometry">
            <mxPoint x="480" y="870" as="sourcePoint" />
            <mxPoint x="150" y="820" as="targetPoint" />
          </mxGeometry>
        </mxCell>
        <mxCell id="o6uIntPfX_4QwC0KGmvb-35" value="&lt;font face=&quot;Times New Roman&quot; style=&quot;font-size: 16px;&quot;&gt;&lt;b&gt;ID&lt;/b&gt;&lt;/font&gt;" style="ellipse;whiteSpace=wrap;html=1;" parent="1" vertex="1">
          <mxGeometry x="-60" y="1220" width="90" height="50" as="geometry" />
        </mxCell>
        <mxCell id="o6uIntPfX_4QwC0KGmvb-36" value="" style="endArrow=none;html=1;rounded=0;exitX=1;exitY=0.5;exitDx=0;exitDy=0;entryX=0.5;entryY=1;entryDx=0;entryDy=0;strokeColor=#000000;" parent="1" source="o6uIntPfX_4QwC0KGmvb-35" target="o6uIntPfX_4QwC0KGmvb-5" edge="1">
          <mxGeometry width="50" height="50" relative="1" as="geometry">
            <mxPoint x="480" y="1160" as="sourcePoint" />
            <mxPoint x="150" y="1210" as="targetPoint" />
          </mxGeometry>
        </mxCell>
        <mxCell id="o6uIntPfX_4QwC0KGmvb-37" value="&lt;font face=&quot;Times New Roman&quot; style=&quot;font-size: 16px;&quot;&gt;&lt;b&gt;Name&lt;/b&gt;&lt;/font&gt;" style="ellipse;whiteSpace=wrap;html=1;" parent="1" vertex="1">
          <mxGeometry x="20" y="1280" width="90" height="50" as="geometry" />
        </mxCell>
        <mxCell id="o6uIntPfX_4QwC0KGmvb-38" value="" style="endArrow=none;html=1;rounded=0;exitX=0.5;exitY=0;exitDx=0;exitDy=0;entryX=0.5;entryY=1;entryDx=0;entryDy=0;strokeColor=#000000;" parent="1" source="o6uIntPfX_4QwC0KGmvb-37" target="o6uIntPfX_4QwC0KGmvb-5" edge="1">
          <mxGeometry width="50" height="50" relative="1" as="geometry">
            <mxPoint x="560" y="1220" as="sourcePoint" />
            <mxPoint x="110" y="1220" as="targetPoint" />
          </mxGeometry>
        </mxCell>
        <mxCell id="o6uIntPfX_4QwC0KGmvb-39" value="&lt;font style=&quot;font-size: 14px;&quot;&gt;&lt;b&gt;LastUpdate&lt;/b&gt;&lt;/font&gt;" style="ellipse;whiteSpace=wrap;html=1;strokeColor=#000000;" parent="1" vertex="1">
          <mxGeometry x="130" y="1280" width="110" height="50" as="geometry" />
        </mxCell>
        <mxCell id="o6uIntPfX_4QwC0KGmvb-40" value="" style="endArrow=none;html=1;rounded=0;exitX=0.5;exitY=0;exitDx=0;exitDy=0;entryX=0.5;entryY=1;entryDx=0;entryDy=0;strokeColor=#000000;" parent="1" source="o6uIntPfX_4QwC0KGmvb-39" target="o6uIntPfX_4QwC0KGmvb-5" edge="1">
          <mxGeometry width="50" height="50" relative="1" as="geometry">
            <mxPoint x="680" y="1260" as="sourcePoint" />
            <mxPoint x="340" y="1160" as="targetPoint" />
          </mxGeometry>
        </mxCell>
        <mxCell id="o6uIntPfX_4QwC0KGmvb-42" value="" style="endArrow=none;html=1;rounded=0;" parent="1" edge="1">
          <mxGeometry width="50" height="50" relative="1" as="geometry">
            <mxPoint x="2120" y="-80" as="sourcePoint" />
            <mxPoint x="2120" y="-80" as="targetPoint" />
            <Array as="points">
              <mxPoint x="2120" y="1400" />
              <mxPoint x="-120" y="1400" />
              <mxPoint x="-120" y="-80" />
            </Array>
          </mxGeometry>
        </mxCell>
        <mxCell id="o6uIntPfX_4QwC0KGmvb-43" value="&lt;h3&gt;&lt;font face=&quot;Times New Roman&quot; style=&quot;font-size: 28px;&quot;&gt;&lt;b style=&quot;&quot;&gt;Inventory&lt;/b&gt;&lt;/font&gt;&lt;/h3&gt;" style="rounded=0;whiteSpace=wrap;html=1;strokeColor=#000000;fillColor=#FFFFFF;" parent="1" vertex="1">
          <mxGeometry x="190" y="450" width="160" height="60" as="geometry" />
        </mxCell>
        <mxCell id="o6uIntPfX_4QwC0KGmvb-44" value="&lt;font face=&quot;Times New Roman&quot;&gt;&lt;span style=&quot;font-size: 20px;&quot;&gt;&lt;b&gt;Represent&lt;/b&gt;&lt;/span&gt;&lt;/font&gt;" style="rhombus;whiteSpace=wrap;html=1;" parent="1" vertex="1">
          <mxGeometry x="260" y="600" width="120" height="100" as="geometry" />
        </mxCell>
        <mxCell id="o6uIntPfX_4QwC0KGmvb-45" value="" style="endArrow=none;html=1;rounded=0;exitX=0.5;exitY=1;exitDx=0;exitDy=0;entryX=0.5;entryY=0;entryDx=0;entryDy=0;strokeColor=#000000;" parent="1" source="o6uIntPfX_4QwC0KGmvb-44" target="o6uIntPfX_4QwC0KGmvb-2" edge="1">
          <mxGeometry width="50" height="50" relative="1" as="geometry">
            <mxPoint x="530" y="265" as="sourcePoint" />
            <mxPoint x="630.0000000000005" y="870" as="targetPoint" />
          </mxGeometry>
        </mxCell>
        <mxCell id="o6uIntPfX_4QwC0KGmvb-46" value="" style="endArrow=none;html=1;rounded=0;exitX=0.5;exitY=1;exitDx=0;exitDy=0;entryX=0.5;entryY=0;entryDx=0;entryDy=0;strokeColor=#000000;" parent="1" source="o6uIntPfX_4QwC0KGmvb-43" target="o6uIntPfX_4QwC0KGmvb-44" edge="1">
          <mxGeometry width="50" height="50" relative="1" as="geometry">
            <mxPoint x="540" y="305" as="sourcePoint" />
            <mxPoint x="680" y="395" as="targetPoint" />
          </mxGeometry>
        </mxCell>
        <mxCell id="o6uIntPfX_4QwC0KGmvb-47" value="" style="endArrow=none;html=1;rounded=0;entryX=0;entryY=0.5;entryDx=0;entryDy=0;strokeColor=#000000;exitX=1;exitY=0.5;exitDx=0;exitDy=0;" parent="1" source="o6uIntPfX_4QwC0KGmvb-51" target="o6uIntPfX_4QwC0KGmvb-43" edge="1">
          <mxGeometry width="50" height="50" relative="1" as="geometry">
            <mxPoint x="20" y="380" as="sourcePoint" />
            <mxPoint x="190" y="215" as="targetPoint" />
          </mxGeometry>
        </mxCell>
        <mxCell id="o6uIntPfX_4QwC0KGmvb-49" value="" style="endArrow=none;html=1;rounded=0;entryX=0;entryY=0.5;entryDx=0;entryDy=0;strokeColor=#000000;exitX=1;exitY=0.5;exitDx=0;exitDy=0;" parent="1" source="o6uIntPfX_4QwC0KGmvb-52" target="o6uIntPfX_4QwC0KGmvb-43" edge="1">
          <mxGeometry width="50" height="50" relative="1" as="geometry">
            <mxPoint y="300" as="sourcePoint" />
            <mxPoint x="200" y="145" as="targetPoint" />
          </mxGeometry>
        </mxCell>
        <mxCell id="o6uIntPfX_4QwC0KGmvb-51" value="&lt;b style=&quot;font-size: 14px;&quot;&gt;LastUpdate&lt;/b&gt;" style="ellipse;whiteSpace=wrap;html=1;strokeColor=#000000;" parent="1" vertex="1">
          <mxGeometry x="-100" y="520" width="110" height="50" as="geometry" />
        </mxCell>
        <mxCell id="o6uIntPfX_4QwC0KGmvb-52" value="&lt;font style=&quot;font-size: 14px;&quot;&gt;&lt;b&gt;ID&lt;/b&gt;&lt;/font&gt;" style="ellipse;whiteSpace=wrap;html=1;strokeColor=#000000;" parent="1" vertex="1">
          <mxGeometry x="-110" y="410" width="90" height="50" as="geometry" />
        </mxCell>
        <mxCell id="o6uIntPfX_4QwC0KGmvb-53" value="&lt;h3&gt;&lt;font face=&quot;Times New Roman&quot; style=&quot;font-size: 28px;&quot;&gt;&lt;b style=&quot;&quot;&gt;Rental&lt;/b&gt;&lt;/font&gt;&lt;/h3&gt;" style="rounded=0;whiteSpace=wrap;html=1;strokeColor=#000000;fillColor=#FFFFFF;" parent="1" vertex="1">
          <mxGeometry x="210" y="80" width="120" height="60" as="geometry" />
        </mxCell>
        <mxCell id="o6uIntPfX_4QwC0KGmvb-54" value="&lt;font style=&quot;font-size: 14px;&quot;&gt;&lt;b&gt;ReturnDate&lt;/b&gt;&lt;/font&gt;" style="ellipse;whiteSpace=wrap;html=1;strokeColor=#000000;" parent="1" vertex="1">
          <mxGeometry x="-70" y="110" width="100" height="50" as="geometry" />
        </mxCell>
        <mxCell id="o6uIntPfX_4QwC0KGmvb-55" value="" style="endArrow=none;html=1;rounded=0;exitX=1;exitY=0.5;exitDx=0;exitDy=0;entryX=0;entryY=0.5;entryDx=0;entryDy=0;strokeColor=#000000;" parent="1" source="o6uIntPfX_4QwC0KGmvb-54" target="o6uIntPfX_4QwC0KGmvb-53" edge="1">
          <mxGeometry width="50" height="50" relative="1" as="geometry">
            <mxPoint x="530" y="130" as="sourcePoint" />
            <mxPoint x="190" y="30" as="targetPoint" />
          </mxGeometry>
        </mxCell>
        <mxCell id="o6uIntPfX_4QwC0KGmvb-56" value="&lt;font style=&quot;font-size: 14px;&quot;&gt;&lt;b&gt;RentalDate&lt;/b&gt;&lt;/font&gt;" style="ellipse;whiteSpace=wrap;html=1;strokeColor=#000000;" parent="1" vertex="1">
          <mxGeometry x="-60" y="40" width="100" height="50" as="geometry" />
        </mxCell>
        <mxCell id="o6uIntPfX_4QwC0KGmvb-57" value="" style="endArrow=none;html=1;rounded=0;exitX=1;exitY=0.5;exitDx=0;exitDy=0;entryX=0;entryY=0.5;entryDx=0;entryDy=0;strokeColor=#000000;" parent="1" source="o6uIntPfX_4QwC0KGmvb-56" target="o6uIntPfX_4QwC0KGmvb-53" edge="1">
          <mxGeometry width="50" height="50" relative="1" as="geometry">
            <mxPoint x="530" y="70" as="sourcePoint" />
            <mxPoint x="200" y="20" as="targetPoint" />
          </mxGeometry>
        </mxCell>
        <mxCell id="o6uIntPfX_4QwC0KGmvb-58" value="&lt;font style=&quot;font-size: 14px;&quot;&gt;&lt;b&gt;ID&lt;/b&gt;&lt;/font&gt;" style="ellipse;whiteSpace=wrap;html=1;strokeColor=#000000;" parent="1" vertex="1">
          <mxGeometry x="-40" y="-40" width="90" height="50" as="geometry" />
        </mxCell>
        <mxCell id="o6uIntPfX_4QwC0KGmvb-59" value="" style="endArrow=none;html=1;rounded=0;exitX=1;exitY=0.5;exitDx=0;exitDy=0;entryX=0;entryY=0.5;entryDx=0;entryDy=0;strokeColor=#000000;" parent="1" source="o6uIntPfX_4QwC0KGmvb-58" target="o6uIntPfX_4QwC0KGmvb-53" edge="1">
          <mxGeometry width="50" height="50" relative="1" as="geometry">
            <mxPoint x="530" y="10" as="sourcePoint" />
            <mxPoint x="200" y="-40" as="targetPoint" />
          </mxGeometry>
        </mxCell>
        <mxCell id="o6uIntPfX_4QwC0KGmvb-60" value="&lt;font style=&quot;font-size: 14px;&quot;&gt;&lt;b&gt;LastUpdate&lt;/b&gt;&lt;/font&gt;" style="ellipse;whiteSpace=wrap;html=1;strokeColor=#000000;" parent="1" vertex="1">
          <mxGeometry x="-60" y="180" width="110" height="50" as="geometry" />
        </mxCell>
        <mxCell id="o6uIntPfX_4QwC0KGmvb-61" value="" style="endArrow=none;html=1;rounded=0;exitX=1;exitY=0.5;exitDx=0;exitDy=0;entryX=0;entryY=0.5;entryDx=0;entryDy=0;strokeColor=#000000;" parent="1" source="o6uIntPfX_4QwC0KGmvb-60" target="o6uIntPfX_4QwC0KGmvb-53" edge="1">
          <mxGeometry width="50" height="50" relative="1" as="geometry">
            <mxPoint x="560" y="160" as="sourcePoint" />
            <mxPoint x="230" y="110" as="targetPoint" />
          </mxGeometry>
        </mxCell>
        <mxCell id="o6uIntPfX_4QwC0KGmvb-62" value="&lt;font face=&quot;Times New Roman&quot;&gt;&lt;span style=&quot;font-size: 20px;&quot;&gt;&lt;b&gt;Strip&lt;/b&gt;&lt;/span&gt;&lt;/font&gt;" style="rhombus;whiteSpace=wrap;html=1;" parent="1" vertex="1">
          <mxGeometry x="210" y="230" width="120" height="100" as="geometry" />
        </mxCell>
        <mxCell id="o6uIntPfX_4QwC0KGmvb-63" value="" style="endArrow=none;html=1;rounded=0;exitX=0.5;exitY=1;exitDx=0;exitDy=0;entryX=0.5;entryY=0;entryDx=0;entryDy=0;strokeColor=#000000;" parent="1" source="o6uIntPfX_4QwC0KGmvb-62" target="o6uIntPfX_4QwC0KGmvb-43" edge="1">
          <mxGeometry width="50" height="50" relative="1" as="geometry">
            <mxPoint x="540" y="275" as="sourcePoint" />
            <mxPoint x="660" y="890" as="targetPoint" />
          </mxGeometry>
        </mxCell>
        <mxCell id="o6uIntPfX_4QwC0KGmvb-64" value="" style="endArrow=none;html=1;rounded=0;exitX=0.5;exitY=1;exitDx=0;exitDy=0;entryX=0.5;entryY=0;entryDx=0;entryDy=0;strokeColor=#000000;" parent="1" source="o6uIntPfX_4QwC0KGmvb-53" target="o6uIntPfX_4QwC0KGmvb-62" edge="1">
          <mxGeometry width="50" height="50" relative="1" as="geometry">
            <mxPoint x="330" y="440" as="sourcePoint" />
            <mxPoint x="690" y="405" as="targetPoint" />
          </mxGeometry>
        </mxCell>
        <mxCell id="o6uIntPfX_4QwC0KGmvb-65" value="&lt;font style=&quot;font-size: 14px;&quot;&gt;&lt;b&gt;ID&lt;/b&gt;&lt;/font&gt;" style="ellipse;whiteSpace=wrap;html=1;strokeColor=#000000;" parent="1" vertex="1">
          <mxGeometry x="430" y="1070" width="70" height="50" as="geometry" />
        </mxCell>
        <mxCell id="o6uIntPfX_4QwC0KGmvb-66" value="" style="endArrow=none;html=1;rounded=0;exitX=1;exitY=0;exitDx=0;exitDy=0;entryX=0.5;entryY=1;entryDx=0;entryDy=0;strokeColor=#000000;" parent="1" source="o6uIntPfX_4QwC0KGmvb-65" target="o6uIntPfX_4QwC0KGmvb-2" edge="1">
          <mxGeometry width="50" height="50" relative="1" as="geometry">
            <mxPoint x="1020" y="1020" as="sourcePoint" />
            <mxPoint x="430" y="970" as="targetPoint" />
          </mxGeometry>
        </mxCell>
        <mxCell id="o6uIntPfX_4QwC0KGmvb-67" value="&lt;font style=&quot;font-size: 14px;&quot;&gt;&lt;b&gt;Description&lt;/b&gt;&lt;/font&gt;" style="ellipse;whiteSpace=wrap;html=1;strokeColor=#000000;" parent="1" vertex="1">
          <mxGeometry x="410" y="1190" width="100" height="50" as="geometry" />
        </mxCell>
        <mxCell id="o6uIntPfX_4QwC0KGmvb-68" value="" style="endArrow=none;html=1;rounded=0;exitX=1;exitY=0;exitDx=0;exitDy=0;strokeColor=#000000;entryX=0.5;entryY=1;entryDx=0;entryDy=0;" parent="1" source="o6uIntPfX_4QwC0KGmvb-67" target="o6uIntPfX_4QwC0KGmvb-2" edge="1">
          <mxGeometry width="50" height="50" relative="1" as="geometry">
            <mxPoint x="1140" y="1020" as="sourcePoint" />
            <mxPoint x="650" y="950" as="targetPoint" />
          </mxGeometry>
        </mxCell>
        <mxCell id="o6uIntPfX_4QwC0KGmvb-69" value="&lt;font style=&quot;font-size: 14px;&quot;&gt;&lt;b&gt;Title&lt;/b&gt;&lt;/font&gt;" style="ellipse;whiteSpace=wrap;html=1;strokeColor=#000000;" parent="1" vertex="1">
          <mxGeometry x="420" y="1130" width="80" height="50" as="geometry" />
        </mxCell>
        <mxCell id="o6uIntPfX_4QwC0KGmvb-70" value="" style="endArrow=none;html=1;rounded=0;exitX=1;exitY=0;exitDx=0;exitDy=0;strokeColor=#000000;entryX=0.5;entryY=1;entryDx=0;entryDy=0;" parent="1" source="o6uIntPfX_4QwC0KGmvb-69" target="o6uIntPfX_4QwC0KGmvb-2" edge="1">
          <mxGeometry width="50" height="50" relative="1" as="geometry">
            <mxPoint x="1070" y="1080" as="sourcePoint" />
            <mxPoint x="650" y="950" as="targetPoint" />
          </mxGeometry>
        </mxCell>
        <mxCell id="o6uIntPfX_4QwC0KGmvb-71" value="&lt;font style=&quot;font-size: 14px;&quot;&gt;&lt;b&gt;ReleaseYear&lt;/b&gt;&lt;/font&gt;" style="ellipse;whiteSpace=wrap;html=1;strokeColor=#000000;" parent="1" vertex="1">
          <mxGeometry x="440" y="1250" width="110" height="50" as="geometry" />
        </mxCell>
        <mxCell id="o6uIntPfX_4QwC0KGmvb-72" value="" style="endArrow=none;html=1;rounded=0;exitX=1;exitY=0;exitDx=0;exitDy=0;strokeColor=#000000;entryX=0.5;entryY=1;entryDx=0;entryDy=0;" parent="1" source="o6uIntPfX_4QwC0KGmvb-71" target="o6uIntPfX_4QwC0KGmvb-2" edge="1">
          <mxGeometry width="50" height="50" relative="1" as="geometry">
            <mxPoint x="1200" y="1080" as="sourcePoint" />
            <mxPoint x="630.0000000000005" y="940.0000000000005" as="targetPoint" />
          </mxGeometry>
        </mxCell>
        <mxCell id="o6uIntPfX_4QwC0KGmvb-73" value="&lt;font style=&quot;font-size: 14px;&quot;&gt;&lt;b&gt;RentalDuration&lt;/b&gt;&lt;/font&gt;" style="ellipse;whiteSpace=wrap;html=1;strokeColor=#000000;" parent="1" vertex="1">
          <mxGeometry x="560" y="1260" width="110" height="50" as="geometry" />
        </mxCell>
        <mxCell id="o6uIntPfX_4QwC0KGmvb-74" value="" style="endArrow=none;html=1;rounded=0;exitX=0;exitY=0;exitDx=0;exitDy=0;strokeColor=#000000;entryX=0.5;entryY=1;entryDx=0;entryDy=0;" parent="1" source="o6uIntPfX_4QwC0KGmvb-73" target="o6uIntPfX_4QwC0KGmvb-2" edge="1">
          <mxGeometry width="50" height="50" relative="1" as="geometry">
            <mxPoint x="1260" y="1020" as="sourcePoint" />
            <mxPoint x="710" y="880" as="targetPoint" />
          </mxGeometry>
        </mxCell>
        <mxCell id="o6uIntPfX_4QwC0KGmvb-75" value="&lt;font style=&quot;font-size: 14px;&quot;&gt;&lt;b&gt;ReplacementCost&lt;/b&gt;&lt;/font&gt;" style="ellipse;whiteSpace=wrap;html=1;strokeColor=#000000;" parent="1" vertex="1">
          <mxGeometry x="680" y="1250" width="140" height="50" as="geometry" />
        </mxCell>
        <mxCell id="o6uIntPfX_4QwC0KGmvb-76" value="" style="endArrow=none;html=1;rounded=0;exitX=0;exitY=0;exitDx=0;exitDy=0;strokeColor=#000000;entryX=0.5;entryY=1;entryDx=0;entryDy=0;" parent="1" source="o6uIntPfX_4QwC0KGmvb-75" target="o6uIntPfX_4QwC0KGmvb-2" edge="1">
          <mxGeometry width="50" height="50" relative="1" as="geometry">
            <mxPoint x="1760" y="920" as="sourcePoint" />
            <mxPoint x="1150" y="840" as="targetPoint" />
          </mxGeometry>
        </mxCell>
        <mxCell id="o6uIntPfX_4QwC0KGmvb-77" value="&lt;font style=&quot;font-size: 14px;&quot;&gt;&lt;b&gt;Length&lt;/b&gt;&lt;/font&gt;" style="ellipse;whiteSpace=wrap;html=1;strokeColor=#000000;" parent="1" vertex="1">
          <mxGeometry x="590" y="1200" width="90" height="50" as="geometry" />
        </mxCell>
        <mxCell id="o6uIntPfX_4QwC0KGmvb-78" value="" style="endArrow=none;html=1;rounded=0;exitX=0.5;exitY=0;exitDx=0;exitDy=0;strokeColor=#000000;entryX=0.5;entryY=1;entryDx=0;entryDy=0;" parent="1" source="o6uIntPfX_4QwC0KGmvb-77" target="o6uIntPfX_4QwC0KGmvb-2" edge="1">
          <mxGeometry width="50" height="50" relative="1" as="geometry">
            <mxPoint x="1300" y="970" as="sourcePoint" />
            <mxPoint x="655" y="950" as="targetPoint" />
          </mxGeometry>
        </mxCell>
        <mxCell id="o6uIntPfX_4QwC0KGmvb-79" value="&lt;font style=&quot;font-size: 14px;&quot;&gt;&lt;b&gt;Rating&lt;/b&gt;&lt;/font&gt;" style="ellipse;whiteSpace=wrap;html=1;strokeColor=#000000;" parent="1" vertex="1">
          <mxGeometry x="700" y="1190" width="80" height="50" as="geometry" />
        </mxCell>
        <mxCell id="o6uIntPfX_4QwC0KGmvb-80" value="" style="endArrow=none;html=1;rounded=0;exitX=0.5;exitY=0;exitDx=0;exitDy=0;strokeColor=#000000;entryX=0.5;entryY=1;entryDx=0;entryDy=0;" parent="1" source="o6uIntPfX_4QwC0KGmvb-79" target="o6uIntPfX_4QwC0KGmvb-2" edge="1">
          <mxGeometry width="50" height="50" relative="1" as="geometry">
            <mxPoint x="1780" y="860" as="sourcePoint" />
            <mxPoint x="670" y="880" as="targetPoint" />
          </mxGeometry>
        </mxCell>
        <mxCell id="o6uIntPfX_4QwC0KGmvb-81" value="&lt;font style=&quot;font-size: 14px;&quot;&gt;&lt;b&gt;RentalRate&lt;/b&gt;&lt;/font&gt;" style="ellipse;whiteSpace=wrap;html=1;strokeColor=#000000;" parent="1" vertex="1">
          <mxGeometry x="780" y="1295" width="90" height="50" as="geometry" />
        </mxCell>
        <mxCell id="o6uIntPfX_4QwC0KGmvb-82" value="" style="endArrow=none;html=1;rounded=0;strokeColor=#000000;entryX=0.5;entryY=1;entryDx=0;entryDy=0;exitX=1;exitY=0;exitDx=0;exitDy=0;" parent="1" source="o6uIntPfX_4QwC0KGmvb-81" target="o6uIntPfX_4QwC0KGmvb-2" edge="1">
          <mxGeometry width="50" height="50" relative="1" as="geometry">
            <mxPoint x="860" y="1280" as="sourcePoint" />
            <mxPoint x="770" y="890" as="targetPoint" />
          </mxGeometry>
        </mxCell>
        <mxCell id="o6uIntPfX_4QwC0KGmvb-83" value="&lt;font style=&quot;font-size: 14px;&quot;&gt;&lt;b&gt;SpecialFeature&lt;/b&gt;&lt;/font&gt;" style="ellipse;whiteSpace=wrap;html=1;strokeColor=#000000;" parent="1" vertex="1">
          <mxGeometry x="880" y="1290" width="120" height="50" as="geometry" />
        </mxCell>
        <mxCell id="o6uIntPfX_4QwC0KGmvb-84" value="" style="endArrow=none;html=1;rounded=0;exitX=0;exitY=0;exitDx=0;exitDy=0;strokeColor=#000000;" parent="1" source="o6uIntPfX_4QwC0KGmvb-83" edge="1">
          <mxGeometry width="50" height="50" relative="1" as="geometry">
            <mxPoint x="1930" y="870" as="sourcePoint" />
            <mxPoint x="650" y="940" as="targetPoint" />
          </mxGeometry>
        </mxCell>
        <mxCell id="o6uIntPfX_4QwC0KGmvb-85" value="&lt;font style=&quot;font-size: 14px;&quot;&gt;&lt;b&gt;LastUpdate&lt;/b&gt;&lt;/font&gt;" style="ellipse;whiteSpace=wrap;html=1;strokeColor=#000000;" parent="1" vertex="1">
          <mxGeometry x="880" y="1230" width="100" height="50" as="geometry" />
        </mxCell>
        <mxCell id="o6uIntPfX_4QwC0KGmvb-86" value="" style="endArrow=none;html=1;rounded=0;exitX=0;exitY=0;exitDx=0;exitDy=0;strokeColor=#000000;entryX=0.5;entryY=1;entryDx=0;entryDy=0;" parent="1" source="o6uIntPfX_4QwC0KGmvb-85" target="o6uIntPfX_4QwC0KGmvb-2" edge="1">
          <mxGeometry width="50" height="50" relative="1" as="geometry">
            <mxPoint x="1950" y="810" as="sourcePoint" />
            <mxPoint x="670" y="880" as="targetPoint" />
          </mxGeometry>
        </mxCell>
        <mxCell id="o6uIntPfX_4QwC0KGmvb-87" value="&lt;font style=&quot;font-size: 14px;&quot;&gt;&lt;b&gt;InStock&lt;/b&gt;&lt;/font&gt;" style="ellipse;whiteSpace=wrap;html=1;strokeColor=#000000;" parent="1" vertex="1">
          <mxGeometry x="1030" y="1280" width="120" height="50" as="geometry" />
        </mxCell>
        <mxCell id="o6uIntPfX_4QwC0KGmvb-88" value="" style="endArrow=none;html=1;rounded=0;exitX=0;exitY=0;exitDx=0;exitDy=0;strokeColor=#000000;entryX=0.5;entryY=1;entryDx=0;entryDy=0;" parent="1" source="o6uIntPfX_4QwC0KGmvb-87" target="o6uIntPfX_4QwC0KGmvb-2" edge="1">
          <mxGeometry width="50" height="50" relative="1" as="geometry">
            <mxPoint x="1940" y="750" as="sourcePoint" />
            <mxPoint x="660" y="820" as="targetPoint" />
          </mxGeometry>
        </mxCell>
        <mxCell id="o6uIntPfX_4QwC0KGmvb-90" value="&lt;h3&gt;&lt;font face=&quot;Times New Roman&quot; style=&quot;font-size: 28px;&quot;&gt;&lt;b style=&quot;&quot;&gt;Payment&lt;/b&gt;&lt;/font&gt;&lt;/h3&gt;" style="rounded=0;whiteSpace=wrap;html=1;strokeColor=#000000;fillColor=#FFFFFF;" parent="1" vertex="1">
          <mxGeometry x="1530" y="50" width="120" height="60" as="geometry" />
        </mxCell>
        <mxCell id="o6uIntPfX_4QwC0KGmvb-91" value="&lt;font style=&quot;font-size: 14px;&quot;&gt;&lt;b&gt;PaymentDate&lt;/b&gt;&lt;/font&gt;" style="ellipse;whiteSpace=wrap;html=1;strokeColor=#000000;" parent="1" vertex="1">
          <mxGeometry x="1910" y="110" width="110" height="50" as="geometry" />
        </mxCell>
        <mxCell id="o6uIntPfX_4QwC0KGmvb-92" value="" style="endArrow=none;html=1;rounded=0;exitX=0;exitY=0.5;exitDx=0;exitDy=0;entryX=1;entryY=0.5;entryDx=0;entryDy=0;strokeColor=#000000;" parent="1" source="o6uIntPfX_4QwC0KGmvb-91" target="o6uIntPfX_4QwC0KGmvb-90" edge="1">
          <mxGeometry width="50" height="50" relative="1" as="geometry">
            <mxPoint x="1850" y="100" as="sourcePoint" />
            <mxPoint x="1510" as="targetPoint" />
          </mxGeometry>
        </mxCell>
        <mxCell id="o6uIntPfX_4QwC0KGmvb-93" value="&lt;font style=&quot;font-size: 14px;&quot;&gt;&lt;b&gt;Amount&lt;/b&gt;&lt;/font&gt;" style="ellipse;whiteSpace=wrap;html=1;strokeColor=#000000;" parent="1" vertex="1">
          <mxGeometry x="1930" y="50" width="90" height="50" as="geometry" />
        </mxCell>
        <mxCell id="o6uIntPfX_4QwC0KGmvb-94" value="" style="endArrow=none;html=1;rounded=0;exitX=0;exitY=0.5;exitDx=0;exitDy=0;entryX=1;entryY=0.5;entryDx=0;entryDy=0;strokeColor=#000000;" parent="1" source="o6uIntPfX_4QwC0KGmvb-93" target="o6uIntPfX_4QwC0KGmvb-90" edge="1">
          <mxGeometry width="50" height="50" relative="1" as="geometry">
            <mxPoint x="1850" y="40" as="sourcePoint" />
            <mxPoint x="1520" y="-10" as="targetPoint" />
          </mxGeometry>
        </mxCell>
        <mxCell id="o6uIntPfX_4QwC0KGmvb-95" value="&lt;font style=&quot;font-size: 14px;&quot;&gt;&lt;b&gt;ID&lt;/b&gt;&lt;/font&gt;" style="ellipse;whiteSpace=wrap;html=1;strokeColor=#000000;" parent="1" vertex="1">
          <mxGeometry x="1930" y="-10" width="70" height="50" as="geometry" />
        </mxCell>
        <mxCell id="o6uIntPfX_4QwC0KGmvb-96" value="" style="endArrow=none;html=1;rounded=0;exitX=0;exitY=0.5;exitDx=0;exitDy=0;entryX=1;entryY=0.5;entryDx=0;entryDy=0;strokeColor=#000000;" parent="1" source="o6uIntPfX_4QwC0KGmvb-95" target="o6uIntPfX_4QwC0KGmvb-90" edge="1">
          <mxGeometry width="50" height="50" relative="1" as="geometry">
            <mxPoint x="1850" y="-20" as="sourcePoint" />
            <mxPoint x="1520" y="-70" as="targetPoint" />
          </mxGeometry>
        </mxCell>
        <mxCell id="o6uIntPfX_4QwC0KGmvb-97" value="&lt;font style=&quot;font-size: 14px;&quot;&gt;&lt;b&gt;LastUpdate&lt;/b&gt;&lt;/font&gt;" style="ellipse;whiteSpace=wrap;html=1;strokeColor=#000000;" parent="1" vertex="1">
          <mxGeometry x="1920" y="170" width="100" height="50" as="geometry" />
        </mxCell>
        <mxCell id="o6uIntPfX_4QwC0KGmvb-98" value="" style="endArrow=none;html=1;rounded=0;exitX=0;exitY=0.5;exitDx=0;exitDy=0;entryX=1;entryY=0.5;entryDx=0;entryDy=0;strokeColor=#000000;" parent="1" source="o6uIntPfX_4QwC0KGmvb-97" target="o6uIntPfX_4QwC0KGmvb-90" edge="1">
          <mxGeometry width="50" height="50" relative="1" as="geometry">
            <mxPoint x="1880" y="130" as="sourcePoint" />
            <mxPoint x="1550" y="80" as="targetPoint" />
          </mxGeometry>
        </mxCell>
        <mxCell id="o6uIntPfX_4QwC0KGmvb-99" value="&lt;font face=&quot;Times New Roman&quot;&gt;&lt;span style=&quot;font-size: 20px;&quot;&gt;&lt;b&gt;Apply&lt;/b&gt;&lt;/span&gt;&lt;/font&gt;" style="rhombus;whiteSpace=wrap;html=1;" parent="1" vertex="1">
          <mxGeometry x="740" y="-10" width="120" height="100" as="geometry" />
        </mxCell>
        <mxCell id="o6uIntPfX_4QwC0KGmvb-100" value="" style="endArrow=none;html=1;rounded=0;exitX=1;exitY=0.5;exitDx=0;exitDy=0;entryX=0;entryY=0.25;entryDx=0;entryDy=0;strokeColor=#000000;" parent="1" source="o6uIntPfX_4QwC0KGmvb-99" target="o6uIntPfX_4QwC0KGmvb-90" edge="1">
          <mxGeometry width="50" height="50" relative="1" as="geometry">
            <mxPoint x="1170" y="-55" as="sourcePoint" />
            <mxPoint x="900" y="120" as="targetPoint" />
          </mxGeometry>
        </mxCell>
        <mxCell id="o6uIntPfX_4QwC0KGmvb-101" value="" style="endArrow=none;html=1;rounded=0;exitX=1;exitY=0.25;exitDx=0;exitDy=0;entryX=0;entryY=0.5;entryDx=0;entryDy=0;strokeColor=#000000;" parent="1" source="o6uIntPfX_4QwC0KGmvb-53" target="o6uIntPfX_4QwC0KGmvb-99" edge="1">
          <mxGeometry width="50" height="50" relative="1" as="geometry">
            <mxPoint x="900" y="-190" as="sourcePoint" />
            <mxPoint x="1320" y="75" as="targetPoint" />
          </mxGeometry>
        </mxCell>
        <mxCell id="o6uIntPfX_4QwC0KGmvb-102" value="&lt;h3&gt;&lt;font face=&quot;Times New Roman&quot; style=&quot;font-size: 28px;&quot;&gt;&lt;b style=&quot;&quot;&gt;Store&lt;/b&gt;&lt;/font&gt;&lt;/h3&gt;" style="rounded=0;whiteSpace=wrap;html=1;strokeColor=#000000;fillColor=#FFFFFF;" parent="1" vertex="1">
          <mxGeometry x="740" y="340" width="120" height="60" as="geometry" />
        </mxCell>
        <mxCell id="o6uIntPfX_4QwC0KGmvb-106" value="&lt;b style=&quot;font-size: 14px;&quot;&gt;LastUpdate&lt;/b&gt;" style="ellipse;whiteSpace=wrap;html=1;strokeColor=#000000;" parent="1" vertex="1">
          <mxGeometry x="800" y="220" width="100" height="40" as="geometry" />
        </mxCell>
        <mxCell id="o6uIntPfX_4QwC0KGmvb-107" value="" style="endArrow=none;html=1;rounded=0;exitX=0.5;exitY=1;exitDx=0;exitDy=0;entryX=0.5;entryY=0;entryDx=0;entryDy=0;strokeColor=#000000;" parent="1" source="o6uIntPfX_4QwC0KGmvb-106" target="o6uIntPfX_4QwC0KGmvb-102" edge="1">
          <mxGeometry width="50" height="50" relative="1" as="geometry">
            <mxPoint x="1660" y="750" as="sourcePoint" />
            <mxPoint x="1330" y="700" as="targetPoint" />
          </mxGeometry>
        </mxCell>
        <mxCell id="o6uIntPfX_4QwC0KGmvb-108" value="&lt;font style=&quot;font-size: 14px;&quot;&gt;&lt;b&gt;ID&lt;/b&gt;&lt;/font&gt;" style="ellipse;whiteSpace=wrap;html=1;strokeColor=#000000;" parent="1" vertex="1">
          <mxGeometry x="700" y="210" width="70" height="40" as="geometry" />
        </mxCell>
        <mxCell id="o6uIntPfX_4QwC0KGmvb-109" value="" style="endArrow=none;html=1;rounded=0;exitX=0.5;exitY=1;exitDx=0;exitDy=0;entryX=0.5;entryY=0;entryDx=0;entryDy=0;strokeColor=#000000;" parent="1" source="o6uIntPfX_4QwC0KGmvb-108" target="o6uIntPfX_4QwC0KGmvb-102" edge="1">
          <mxGeometry width="50" height="50" relative="1" as="geometry">
            <mxPoint x="1690" y="900" as="sourcePoint" />
            <mxPoint x="1360" y="850" as="targetPoint" />
          </mxGeometry>
        </mxCell>
        <mxCell id="o6uIntPfX_4QwC0KGmvb-111" value="&lt;font face=&quot;Times New Roman&quot;&gt;&lt;span style=&quot;font-size: 20px;&quot;&gt;&lt;b&gt;Stock&lt;/b&gt;&lt;/span&gt;&lt;/font&gt;" style="rhombus;whiteSpace=wrap;html=1;" parent="1" vertex="1">
          <mxGeometry x="510" y="320" width="120" height="100" as="geometry" />
        </mxCell>
        <mxCell id="o6uIntPfX_4QwC0KGmvb-112" value="" style="endArrow=none;html=1;rounded=0;exitX=1;exitY=0.5;exitDx=0;exitDy=0;entryX=0;entryY=0.5;entryDx=0;entryDy=0;strokeColor=#000000;" parent="1" source="o6uIntPfX_4QwC0KGmvb-111" target="o6uIntPfX_4QwC0KGmvb-102" edge="1">
          <mxGeometry width="50" height="50" relative="1" as="geometry">
            <mxPoint x="760" y="235" as="sourcePoint" />
            <mxPoint x="880" y="850" as="targetPoint" />
          </mxGeometry>
        </mxCell>
        <mxCell id="o6uIntPfX_4QwC0KGmvb-113" value="" style="endArrow=none;html=1;rounded=0;exitX=1;exitY=0.5;exitDx=0;exitDy=0;entryX=0;entryY=0.5;entryDx=0;entryDy=0;strokeColor=#000000;" parent="1" source="o6uIntPfX_4QwC0KGmvb-43" target="o6uIntPfX_4QwC0KGmvb-111" edge="1">
          <mxGeometry width="50" height="50" relative="1" as="geometry">
            <mxPoint x="580" y="450" as="sourcePoint" />
            <mxPoint x="910" y="365" as="targetPoint" />
          </mxGeometry>
        </mxCell>
        <mxCell id="o6uIntPfX_4QwC0KGmvb-115" value="&lt;h3&gt;&lt;font face=&quot;Times New Roman&quot; style=&quot;font-size: 28px;&quot;&gt;&lt;b style=&quot;&quot;&gt;Staff&lt;/b&gt;&lt;/font&gt;&lt;/h3&gt;" style="rounded=0;whiteSpace=wrap;html=1;strokeColor=#000000;fillColor=#FFFFFF;" parent="1" vertex="1">
          <mxGeometry x="1120" y="880" width="120" height="60" as="geometry" />
        </mxCell>
        <mxCell id="o6uIntPfX_4QwC0KGmvb-124" value="&lt;h3&gt;&lt;font face=&quot;Times New Roman&quot; style=&quot;font-size: 28px;&quot;&gt;&lt;b style=&quot;&quot;&gt;Customer&lt;/b&gt;&lt;/font&gt;&lt;/h3&gt;" style="rounded=0;whiteSpace=wrap;html=1;strokeColor=#000000;fillColor=#FFFFFF;" parent="1" vertex="1">
          <mxGeometry x="1530" y="420" width="140" height="60" as="geometry" />
        </mxCell>
        <mxCell id="o6uIntPfX_4QwC0KGmvb-125" value="&lt;b style=&quot;font-size: 14px;&quot;&gt;LastName&lt;/b&gt;" style="ellipse;whiteSpace=wrap;html=1;strokeColor=#000000;" parent="1" vertex="1">
          <mxGeometry x="1940" y="400" width="110" height="40" as="geometry" />
        </mxCell>
        <mxCell id="o6uIntPfX_4QwC0KGmvb-126" value="" style="endArrow=none;html=1;rounded=0;exitX=0;exitY=0.5;exitDx=0;exitDy=0;entryX=1;entryY=0.5;entryDx=0;entryDy=0;strokeColor=#000000;" parent="1" source="o6uIntPfX_4QwC0KGmvb-125" target="o6uIntPfX_4QwC0KGmvb-124" edge="1">
          <mxGeometry width="50" height="50" relative="1" as="geometry">
            <mxPoint x="1950" y="440" as="sourcePoint" />
            <mxPoint x="1610" y="340" as="targetPoint" />
          </mxGeometry>
        </mxCell>
        <mxCell id="o6uIntPfX_4QwC0KGmvb-127" value="&lt;font style=&quot;font-size: 14px;&quot;&gt;&lt;b&gt;FirstName&lt;/b&gt;&lt;/font&gt;" style="ellipse;whiteSpace=wrap;html=1;strokeColor=#000000;" parent="1" vertex="1">
          <mxGeometry x="1940" y="350" width="90" height="40" as="geometry" />
        </mxCell>
        <mxCell id="o6uIntPfX_4QwC0KGmvb-128" value="" style="endArrow=none;html=1;rounded=0;exitX=0;exitY=0.5;exitDx=0;exitDy=0;entryX=1;entryY=0.5;entryDx=0;entryDy=0;strokeColor=#000000;" parent="1" source="o6uIntPfX_4QwC0KGmvb-127" target="o6uIntPfX_4QwC0KGmvb-124" edge="1">
          <mxGeometry width="50" height="50" relative="1" as="geometry">
            <mxPoint x="1950" y="380" as="sourcePoint" />
            <mxPoint x="1620" y="330" as="targetPoint" />
          </mxGeometry>
        </mxCell>
        <mxCell id="o6uIntPfX_4QwC0KGmvb-129" value="&lt;font style=&quot;font-size: 14px;&quot;&gt;&lt;b&gt;ID&lt;/b&gt;&lt;/font&gt;" style="ellipse;whiteSpace=wrap;html=1;strokeColor=#000000;" parent="1" vertex="1">
          <mxGeometry x="1950" y="300" width="70" height="40" as="geometry" />
        </mxCell>
        <mxCell id="o6uIntPfX_4QwC0KGmvb-130" value="" style="endArrow=none;html=1;rounded=0;exitX=0;exitY=0.5;exitDx=0;exitDy=0;entryX=1;entryY=0.5;entryDx=0;entryDy=0;strokeColor=#000000;" parent="1" source="o6uIntPfX_4QwC0KGmvb-129" target="o6uIntPfX_4QwC0KGmvb-124" edge="1">
          <mxGeometry width="50" height="50" relative="1" as="geometry">
            <mxPoint x="1950" y="320" as="sourcePoint" />
            <mxPoint x="1620" y="270" as="targetPoint" />
          </mxGeometry>
        </mxCell>
        <mxCell id="o6uIntPfX_4QwC0KGmvb-131" value="&lt;font style=&quot;font-size: 14px;&quot;&gt;&lt;b&gt;Active&lt;/b&gt;&lt;/font&gt;" style="ellipse;whiteSpace=wrap;html=1;strokeColor=#000000;" parent="1" vertex="1">
          <mxGeometry x="1940" y="450" width="110" height="40" as="geometry" />
        </mxCell>
        <mxCell id="o6uIntPfX_4QwC0KGmvb-132" value="" style="endArrow=none;html=1;rounded=0;exitX=0;exitY=0;exitDx=0;exitDy=0;entryX=1;entryY=0.5;entryDx=0;entryDy=0;strokeColor=#000000;" parent="1" source="o6uIntPfX_4QwC0KGmvb-131" target="o6uIntPfX_4QwC0KGmvb-124" edge="1">
          <mxGeometry width="50" height="50" relative="1" as="geometry">
            <mxPoint x="1980" y="470" as="sourcePoint" />
            <mxPoint x="1650" y="420" as="targetPoint" />
          </mxGeometry>
        </mxCell>
        <mxCell id="o6uIntPfX_4QwC0KGmvb-133" value="&lt;font style=&quot;font-size: 14px;&quot;&gt;&lt;b&gt;CreateDate&lt;/b&gt;&lt;/font&gt;" style="ellipse;whiteSpace=wrap;html=1;strokeColor=#000000;" parent="1" vertex="1">
          <mxGeometry x="1960" y="510" width="90" height="40" as="geometry" />
        </mxCell>
        <mxCell id="o6uIntPfX_4QwC0KGmvb-134" value="" style="endArrow=none;html=1;rounded=0;exitX=0;exitY=0;exitDx=0;exitDy=0;entryX=1;entryY=0.5;entryDx=0;entryDy=0;strokeColor=#000000;" parent="1" source="o6uIntPfX_4QwC0KGmvb-133" target="o6uIntPfX_4QwC0KGmvb-124" edge="1">
          <mxGeometry width="50" height="50" relative="1" as="geometry">
            <mxPoint x="1990" y="530" as="sourcePoint" />
            <mxPoint x="1760" y="480" as="targetPoint" />
          </mxGeometry>
        </mxCell>
        <mxCell id="o6uIntPfX_4QwC0KGmvb-135" value="&lt;font style=&quot;font-size: 14px;&quot;&gt;&lt;b&gt;UpdateDate&lt;/b&gt;&lt;/font&gt;" style="ellipse;whiteSpace=wrap;html=1;strokeColor=#000000;" parent="1" vertex="1">
          <mxGeometry x="1850" y="520" width="100" height="40" as="geometry" />
        </mxCell>
        <mxCell id="o6uIntPfX_4QwC0KGmvb-136" value="" style="endArrow=none;html=1;rounded=0;exitX=0.5;exitY=0;exitDx=0;exitDy=0;entryX=1;entryY=0.5;entryDx=0;entryDy=0;strokeColor=#000000;" parent="1" source="o6uIntPfX_4QwC0KGmvb-135" target="o6uIntPfX_4QwC0KGmvb-124" edge="1">
          <mxGeometry width="50" height="50" relative="1" as="geometry">
            <mxPoint x="1870" y="540" as="sourcePoint" />
            <mxPoint x="1630" y="430" as="targetPoint" />
          </mxGeometry>
        </mxCell>
        <mxCell id="o6uIntPfX_4QwC0KGmvb-138" value="&lt;font style=&quot;font-size: 14px;&quot;&gt;&lt;b&gt;LastName&lt;/b&gt;&lt;/font&gt;" style="ellipse;whiteSpace=wrap;html=1;strokeColor=#000000;" parent="1" vertex="1">
          <mxGeometry x="1051" y="1094" width="90" height="40" as="geometry" />
        </mxCell>
        <mxCell id="o6uIntPfX_4QwC0KGmvb-139" value="" style="endArrow=none;html=1;rounded=0;exitX=1;exitY=0;exitDx=0;exitDy=0;entryX=0.5;entryY=1;entryDx=0;entryDy=0;strokeColor=#000000;" parent="1" source="o6uIntPfX_4QwC0KGmvb-138" target="o6uIntPfX_4QwC0KGmvb-115" edge="1">
          <mxGeometry width="50" height="50" relative="1" as="geometry">
            <mxPoint x="1561" y="1144" as="sourcePoint" />
            <mxPoint x="1271" y="1044" as="targetPoint" />
          </mxGeometry>
        </mxCell>
        <mxCell id="o6uIntPfX_4QwC0KGmvb-140" value="&lt;font style=&quot;font-size: 14px;&quot;&gt;&lt;b&gt;Picture&lt;/b&gt;&lt;/font&gt;" style="ellipse;whiteSpace=wrap;html=1;strokeColor=#000000;" parent="1" vertex="1">
          <mxGeometry x="1100" y="1180" width="70" height="40" as="geometry" />
        </mxCell>
        <mxCell id="o6uIntPfX_4QwC0KGmvb-141" value="" style="endArrow=none;html=1;rounded=0;entryX=0.5;entryY=0;entryDx=0;entryDy=0;strokeColor=#000000;exitX=0.5;exitY=1;exitDx=0;exitDy=0;" parent="1" source="o6uIntPfX_4QwC0KGmvb-115" target="o6uIntPfX_4QwC0KGmvb-140" edge="1">
          <mxGeometry width="50" height="50" relative="1" as="geometry">
            <mxPoint x="1751" y="994" as="sourcePoint" />
            <mxPoint x="1281" y="1054" as="targetPoint" />
          </mxGeometry>
        </mxCell>
        <mxCell id="o6uIntPfX_4QwC0KGmvb-143" value="&lt;font style=&quot;font-size: 14px;&quot;&gt;&lt;b&gt;FirstName&lt;/b&gt;&lt;/font&gt;" style="ellipse;whiteSpace=wrap;html=1;strokeColor=#000000;" parent="1" vertex="1">
          <mxGeometry x="950" y="1100" width="90" height="40" as="geometry" />
        </mxCell>
        <mxCell id="o6uIntPfX_4QwC0KGmvb-144" value="" style="endArrow=none;html=1;rounded=0;exitX=1;exitY=0;exitDx=0;exitDy=0;entryX=0.5;entryY=1;entryDx=0;entryDy=0;strokeColor=#000000;" parent="1" source="o6uIntPfX_4QwC0KGmvb-143" target="o6uIntPfX_4QwC0KGmvb-115" edge="1">
          <mxGeometry width="50" height="50" relative="1" as="geometry">
            <mxPoint x="1551" y="1094" as="sourcePoint" />
            <mxPoint x="1291" y="844" as="targetPoint" />
          </mxGeometry>
        </mxCell>
        <mxCell id="o6uIntPfX_4QwC0KGmvb-145" value="&lt;font style=&quot;font-size: 14px;&quot;&gt;&lt;b&gt;ID&lt;/b&gt;&lt;/font&gt;" style="ellipse;whiteSpace=wrap;html=1;strokeColor=#000000;" parent="1" vertex="1">
          <mxGeometry x="960" y="1040" width="90" height="40" as="geometry" />
        </mxCell>
        <mxCell id="o6uIntPfX_4QwC0KGmvb-146" value="" style="endArrow=none;html=1;rounded=0;exitX=1;exitY=0;exitDx=0;exitDy=0;entryX=0.5;entryY=1;entryDx=0;entryDy=0;strokeColor=#000000;" parent="1" source="o6uIntPfX_4QwC0KGmvb-145" target="o6uIntPfX_4QwC0KGmvb-115" edge="1">
          <mxGeometry width="50" height="50" relative="1" as="geometry">
            <mxPoint x="1541" y="1044" as="sourcePoint" />
            <mxPoint x="1291" y="844" as="targetPoint" />
          </mxGeometry>
        </mxCell>
        <mxCell id="o6uIntPfX_4QwC0KGmvb-147" value="&lt;font style=&quot;font-size: 14px;&quot;&gt;&lt;b&gt;Email&lt;/b&gt;&lt;/font&gt;" style="ellipse;whiteSpace=wrap;html=1;strokeColor=#000000;" parent="1" vertex="1">
          <mxGeometry x="1150" y="1134" width="60" height="40" as="geometry" />
        </mxCell>
        <mxCell id="o6uIntPfX_4QwC0KGmvb-148" value="" style="endArrow=none;html=1;rounded=0;entryX=0.5;entryY=0;entryDx=0;entryDy=0;strokeColor=#000000;exitX=0.5;exitY=1;exitDx=0;exitDy=0;" parent="1" source="o6uIntPfX_4QwC0KGmvb-115" target="o6uIntPfX_4QwC0KGmvb-147" edge="1">
          <mxGeometry width="50" height="50" relative="1" as="geometry">
            <mxPoint x="1391" y="894" as="sourcePoint" />
            <mxPoint x="1371" y="1054" as="targetPoint" />
          </mxGeometry>
        </mxCell>
        <mxCell id="o6uIntPfX_4QwC0KGmvb-149" value="&lt;font style=&quot;font-size: 14px;&quot;&gt;&lt;b&gt;Active&lt;/b&gt;&lt;/font&gt;" style="ellipse;whiteSpace=wrap;html=1;strokeColor=#000000;" parent="1" vertex="1">
          <mxGeometry x="1220" y="1200" width="80" height="40" as="geometry" />
        </mxCell>
        <mxCell id="o6uIntPfX_4QwC0KGmvb-150" value="" style="endArrow=none;html=1;rounded=0;entryX=0;entryY=0;entryDx=0;entryDy=0;strokeColor=#000000;exitX=0.5;exitY=1;exitDx=0;exitDy=0;" parent="1" source="o6uIntPfX_4QwC0KGmvb-115" target="o6uIntPfX_4QwC0KGmvb-149" edge="1">
          <mxGeometry width="50" height="50" relative="1" as="geometry">
            <mxPoint x="1541" y="914" as="sourcePoint" />
            <mxPoint x="1251" y="1174" as="targetPoint" />
          </mxGeometry>
        </mxCell>
        <mxCell id="o6uIntPfX_4QwC0KGmvb-151" value="&lt;font style=&quot;font-size: 14px;&quot;&gt;&lt;b&gt;UserName&lt;/b&gt;&lt;/font&gt;" style="ellipse;whiteSpace=wrap;html=1;strokeColor=#000000;" parent="1" vertex="1">
          <mxGeometry x="1250" y="1150" width="90" height="40" as="geometry" />
        </mxCell>
        <mxCell id="o6uIntPfX_4QwC0KGmvb-152" value="" style="endArrow=none;html=1;rounded=0;entryX=0.5;entryY=0;entryDx=0;entryDy=0;strokeColor=#000000;exitX=0.5;exitY=1;exitDx=0;exitDy=0;" parent="1" source="o6uIntPfX_4QwC0KGmvb-115" target="o6uIntPfX_4QwC0KGmvb-151" edge="1">
          <mxGeometry width="50" height="50" relative="1" as="geometry">
            <mxPoint x="1391" y="934" as="sourcePoint" />
            <mxPoint x="1601" y="1114" as="targetPoint" />
          </mxGeometry>
        </mxCell>
        <mxCell id="o6uIntPfX_4QwC0KGmvb-153" value="&lt;font style=&quot;font-size: 14px;&quot;&gt;&lt;b&gt;LastUpdate&lt;/b&gt;&lt;/font&gt;" style="ellipse;whiteSpace=wrap;html=1;strokeColor=#000000;" parent="1" vertex="1">
          <mxGeometry x="1390" y="1144" width="90" height="40" as="geometry" />
        </mxCell>
        <mxCell id="o6uIntPfX_4QwC0KGmvb-154" value="" style="endArrow=none;html=1;rounded=0;entryX=0.5;entryY=0;entryDx=0;entryDy=0;strokeColor=#000000;exitX=0.5;exitY=1;exitDx=0;exitDy=0;" parent="1" source="o6uIntPfX_4QwC0KGmvb-115" target="o6uIntPfX_4QwC0KGmvb-153" edge="1">
          <mxGeometry width="50" height="50" relative="1" as="geometry">
            <mxPoint x="1321" y="894" as="sourcePoint" />
            <mxPoint x="1831" y="1104" as="targetPoint" />
          </mxGeometry>
        </mxCell>
        <mxCell id="o6uIntPfX_4QwC0KGmvb-155" value="" style="endArrow=none;html=1;rounded=0;strokeColor=#000000;exitX=0.5;exitY=1;exitDx=0;exitDy=0;entryX=0.5;entryY=0;entryDx=0;entryDy=0;" parent="1" source="o6uIntPfX_4QwC0KGmvb-115" target="o6uIntPfX_4QwC0KGmvb-156" edge="1">
          <mxGeometry width="50" height="50" relative="1" as="geometry">
            <mxPoint x="1311" y="904" as="sourcePoint" />
            <mxPoint x="1396" y="1184" as="targetPoint" />
          </mxGeometry>
        </mxCell>
        <mxCell id="o6uIntPfX_4QwC0KGmvb-156" value="&lt;font style=&quot;font-size: 14px;&quot;&gt;&lt;b&gt;Password&lt;/b&gt;&lt;/font&gt;" style="ellipse;whiteSpace=wrap;html=1;strokeColor=#000000;" parent="1" vertex="1">
          <mxGeometry x="1330" y="1200" width="90" height="40" as="geometry" />
        </mxCell>
        <mxCell id="o6uIntPfX_4QwC0KGmvb-165" value="&lt;font face=&quot;Times New Roman&quot;&gt;&lt;span style=&quot;font-size: 20px;&quot;&gt;&lt;b&gt;Work&lt;/b&gt;&lt;/span&gt;&lt;/font&gt;" style="rhombus;whiteSpace=wrap;html=1;" parent="1" vertex="1">
          <mxGeometry x="650" y="510" width="120" height="110" as="geometry" />
        </mxCell>
        <mxCell id="o6uIntPfX_4QwC0KGmvb-166" value="" style="endArrow=none;html=1;rounded=0;exitX=0.5;exitY=0;exitDx=0;exitDy=0;entryX=0.25;entryY=1;entryDx=0;entryDy=0;strokeColor=#000000;" parent="1" source="o6uIntPfX_4QwC0KGmvb-165" target="o6uIntPfX_4QwC0KGmvb-102" edge="1">
          <mxGeometry width="50" height="50" relative="1" as="geometry">
            <mxPoint x="1050" y="445" as="sourcePoint" />
            <mxPoint x="1120" y="680" as="targetPoint" />
          </mxGeometry>
        </mxCell>
        <mxCell id="o6uIntPfX_4QwC0KGmvb-167" value="" style="endArrow=none;html=1;rounded=0;exitX=0;exitY=0;exitDx=0;exitDy=0;entryX=0.5;entryY=1;entryDx=0;entryDy=0;strokeColor=#000000;" parent="1" source="o6uIntPfX_4QwC0KGmvb-115" target="o6uIntPfX_4QwC0KGmvb-165" edge="1">
          <mxGeometry width="50" height="50" relative="1" as="geometry">
            <mxPoint x="640" y="690" as="sourcePoint" />
            <mxPoint x="1200" y="575" as="targetPoint" />
          </mxGeometry>
        </mxCell>
        <mxCell id="o6uIntPfX_4QwC0KGmvb-168" value="&lt;font face=&quot;Times New Roman&quot;&gt;&lt;span style=&quot;font-size: 20px;&quot;&gt;&lt;b&gt;Process&lt;/b&gt;&lt;/span&gt;&lt;/font&gt;" style="rhombus;whiteSpace=wrap;html=1;" parent="1" vertex="1">
          <mxGeometry x="640" y="720" width="120" height="100" as="geometry" />
        </mxCell>
        <mxCell id="o6uIntPfX_4QwC0KGmvb-169" value="" style="endArrow=none;html=1;rounded=0;exitX=0;exitY=0.5;exitDx=0;exitDy=0;entryX=1;entryY=1;entryDx=0;entryDy=0;strokeColor=#000000;" parent="1" source="o6uIntPfX_4QwC0KGmvb-168" target="o6uIntPfX_4QwC0KGmvb-53" edge="1">
          <mxGeometry width="50" height="50" relative="1" as="geometry">
            <mxPoint x="890" y="475" as="sourcePoint" />
            <mxPoint x="730" y="530" as="targetPoint" />
            <Array as="points">
              <mxPoint x="480" y="540" />
            </Array>
          </mxGeometry>
        </mxCell>
        <mxCell id="o6uIntPfX_4QwC0KGmvb-170" value="" style="endArrow=none;html=1;rounded=0;exitX=0;exitY=0.5;exitDx=0;exitDy=0;entryX=1;entryY=0.5;entryDx=0;entryDy=0;strokeColor=#000000;" parent="1" source="o6uIntPfX_4QwC0KGmvb-115" target="o6uIntPfX_4QwC0KGmvb-168" edge="1">
          <mxGeometry width="50" height="50" relative="1" as="geometry">
            <mxPoint x="1020" y="910" as="sourcePoint" />
            <mxPoint x="1040" y="605" as="targetPoint" />
          </mxGeometry>
        </mxCell>
        <mxCell id="o6uIntPfX_4QwC0KGmvb-171" value="&lt;font face=&quot;Times New Roman&quot;&gt;&lt;span style=&quot;font-size: 20px;&quot;&gt;&lt;b&gt;Process&lt;/b&gt;&lt;/span&gt;&lt;/font&gt;" style="rhombus;whiteSpace=wrap;html=1;" parent="1" vertex="1">
          <mxGeometry x="980" y="560" width="120" height="100" as="geometry" />
        </mxCell>
        <mxCell id="o6uIntPfX_4QwC0KGmvb-172" value="" style="endArrow=none;html=1;rounded=0;exitX=0.5;exitY=0;exitDx=0;exitDy=0;entryX=0.25;entryY=1;entryDx=0;entryDy=0;strokeColor=#000000;" parent="1" source="o6uIntPfX_4QwC0KGmvb-171" target="o6uIntPfX_4QwC0KGmvb-90" edge="1">
          <mxGeometry width="50" height="50" relative="1" as="geometry">
            <mxPoint x="1180" y="355" as="sourcePoint" />
            <mxPoint x="1020" y="410" as="targetPoint" />
          </mxGeometry>
        </mxCell>
        <mxCell id="o6uIntPfX_4QwC0KGmvb-173" value="" style="endArrow=none;html=1;rounded=0;entryX=0.5;entryY=1;entryDx=0;entryDy=0;strokeColor=#000000;exitX=0.5;exitY=0;exitDx=0;exitDy=0;" parent="1" source="o6uIntPfX_4QwC0KGmvb-115" target="o6uIntPfX_4QwC0KGmvb-171" edge="1">
          <mxGeometry width="50" height="50" relative="1" as="geometry">
            <mxPoint x="1310" y="790" as="sourcePoint" />
            <mxPoint x="1330" y="485" as="targetPoint" />
          </mxGeometry>
        </mxCell>
        <mxCell id="o6uIntPfX_4QwC0KGmvb-174" value="&lt;font face=&quot;Times New Roman&quot;&gt;&lt;span style=&quot;font-size: 20px;&quot;&gt;&lt;b&gt;Manage&lt;/b&gt;&lt;/span&gt;&lt;/font&gt;" style="rhombus;whiteSpace=wrap;html=1;" parent="1" vertex="1">
          <mxGeometry x="800" y="510" width="120" height="110" as="geometry" />
        </mxCell>
        <mxCell id="o6uIntPfX_4QwC0KGmvb-175" value="" style="endArrow=none;html=1;rounded=0;exitX=0.5;exitY=0;exitDx=0;exitDy=0;entryX=0.5;entryY=1;entryDx=0;entryDy=0;strokeColor=#000000;" parent="1" source="o6uIntPfX_4QwC0KGmvb-174" target="o6uIntPfX_4QwC0KGmvb-102" edge="1">
          <mxGeometry width="50" height="50" relative="1" as="geometry">
            <mxPoint x="1170" y="445" as="sourcePoint" />
            <mxPoint x="980" y="500" as="targetPoint" />
          </mxGeometry>
        </mxCell>
        <mxCell id="o6uIntPfX_4QwC0KGmvb-176" value="" style="endArrow=none;html=1;rounded=0;exitX=0.25;exitY=0;exitDx=0;exitDy=0;entryX=0.5;entryY=1;entryDx=0;entryDy=0;strokeColor=#000000;" parent="1" source="o6uIntPfX_4QwC0KGmvb-115" target="o6uIntPfX_4QwC0KGmvb-174" edge="1">
          <mxGeometry width="50" height="50" relative="1" as="geometry">
            <mxPoint x="1240" y="880" as="sourcePoint" />
            <mxPoint x="1320" y="575" as="targetPoint" />
          </mxGeometry>
        </mxCell>
        <mxCell id="o6uIntPfX_4QwC0KGmvb-177" value="&lt;font face=&quot;Times New Roman&quot;&gt;&lt;span style=&quot;font-size: 20px;&quot;&gt;&lt;b&gt;Pay&lt;/b&gt;&lt;/span&gt;&lt;/font&gt;" style="rhombus;whiteSpace=wrap;html=1;" parent="1" vertex="1">
          <mxGeometry x="1530" y="210" width="120" height="100" as="geometry" />
        </mxCell>
        <mxCell id="o6uIntPfX_4QwC0KGmvb-178" value="" style="endArrow=none;html=1;rounded=0;exitX=0.5;exitY=0;exitDx=0;exitDy=0;entryX=0.5;entryY=1;entryDx=0;entryDy=0;strokeColor=#000000;" parent="1" source="o6uIntPfX_4QwC0KGmvb-177" target="o6uIntPfX_4QwC0KGmvb-90" edge="1">
          <mxGeometry width="50" height="50" relative="1" as="geometry">
            <mxPoint x="1800" y="85" as="sourcePoint" />
            <mxPoint x="1610" y="140" as="targetPoint" />
          </mxGeometry>
        </mxCell>
        <mxCell id="o6uIntPfX_4QwC0KGmvb-179" value="" style="endArrow=none;html=1;rounded=0;exitX=0.5;exitY=0;exitDx=0;exitDy=0;entryX=0.5;entryY=1;entryDx=0;entryDy=0;strokeColor=#000000;" parent="1" source="o6uIntPfX_4QwC0KGmvb-124" target="o6uIntPfX_4QwC0KGmvb-177" edge="1">
          <mxGeometry width="50" height="50" relative="1" as="geometry">
            <mxPoint x="1870" y="520" as="sourcePoint" />
            <mxPoint x="1950" y="215" as="targetPoint" />
          </mxGeometry>
        </mxCell>
        <mxCell id="o6uIntPfX_4QwC0KGmvb-180" value="&lt;h3&gt;&lt;font face=&quot;Times New Roman&quot; style=&quot;font-size: 28px;&quot;&gt;&lt;b style=&quot;&quot;&gt;Address&lt;/b&gt;&lt;/font&gt;&lt;/h3&gt;" style="rounded=0;whiteSpace=wrap;html=1;strokeColor=#000000;fillColor=#FFFFFF;" parent="1" vertex="1">
          <mxGeometry x="1750" y="940" width="120" height="60" as="geometry" />
        </mxCell>
        <mxCell id="o6uIntPfX_4QwC0KGmvb-184" value="&lt;font style=&quot;font-size: 14px;&quot;&gt;&lt;b&gt;ID&lt;/b&gt;&lt;/font&gt;" style="ellipse;whiteSpace=wrap;html=1;strokeColor=#000000;" parent="1" vertex="1">
          <mxGeometry x="1560" y="1100" width="60" height="40" as="geometry" />
        </mxCell>
        <mxCell id="o6uIntPfX_4QwC0KGmvb-185" value="" style="endArrow=none;html=1;rounded=0;exitX=1;exitY=0;exitDx=0;exitDy=0;entryX=0.5;entryY=1;entryDx=0;entryDy=0;strokeColor=#000000;" parent="1" source="o6uIntPfX_4QwC0KGmvb-184" target="o6uIntPfX_4QwC0KGmvb-180" edge="1">
          <mxGeometry width="50" height="50" relative="1" as="geometry">
            <mxPoint x="2141" y="1214" as="sourcePoint" />
            <mxPoint x="1881" y="964" as="targetPoint" />
          </mxGeometry>
        </mxCell>
        <mxCell id="o6uIntPfX_4QwC0KGmvb-188" value="&lt;font style=&quot;font-size: 14px;&quot;&gt;&lt;b&gt;Address&lt;/b&gt;&lt;/font&gt;" style="ellipse;whiteSpace=wrap;html=1;strokeColor=#000000;" parent="1" vertex="1">
          <mxGeometry x="1580" y="1160" width="70" height="40" as="geometry" />
        </mxCell>
        <mxCell id="o6uIntPfX_4QwC0KGmvb-189" value="" style="endArrow=none;html=1;rounded=0;entryX=0.5;entryY=0;entryDx=0;entryDy=0;strokeColor=#000000;exitX=0.5;exitY=1;exitDx=0;exitDy=0;" parent="1" source="o6uIntPfX_4QwC0KGmvb-180" target="o6uIntPfX_4QwC0KGmvb-188" edge="1">
          <mxGeometry width="50" height="50" relative="1" as="geometry">
            <mxPoint x="1981" y="1014" as="sourcePoint" />
            <mxPoint x="1961" y="1174" as="targetPoint" />
          </mxGeometry>
        </mxCell>
        <mxCell id="o6uIntPfX_4QwC0KGmvb-190" value="" style="endArrow=none;html=1;rounded=0;entryX=0.5;entryY=0;entryDx=0;entryDy=0;strokeColor=#000000;exitX=0.5;exitY=1;exitDx=0;exitDy=0;" parent="1" source="o6uIntPfX_4QwC0KGmvb-180" target="o6uIntPfX_4QwC0KGmvb-188" edge="1">
          <mxGeometry width="50" height="50" relative="1" as="geometry">
            <mxPoint x="2131" y="1034" as="sourcePoint" />
            <mxPoint x="1822" y="1326" as="targetPoint" />
          </mxGeometry>
        </mxCell>
        <mxCell id="o6uIntPfX_4QwC0KGmvb-191" value="&lt;font style=&quot;font-size: 14px;&quot;&gt;&lt;b&gt;PostCode&lt;/b&gt;&lt;/font&gt;" style="ellipse;whiteSpace=wrap;html=1;strokeColor=#000000;" parent="1" vertex="1">
          <mxGeometry x="1570" y="1210" width="90" height="40" as="geometry" />
        </mxCell>
        <mxCell id="o6uIntPfX_4QwC0KGmvb-192" value="" style="endArrow=none;html=1;rounded=0;entryX=1;entryY=0;entryDx=0;entryDy=0;strokeColor=#000000;exitX=0.5;exitY=1;exitDx=0;exitDy=0;" parent="1" source="o6uIntPfX_4QwC0KGmvb-180" target="o6uIntPfX_4QwC0KGmvb-191" edge="1">
          <mxGeometry width="50" height="50" relative="1" as="geometry">
            <mxPoint x="1981" y="1054" as="sourcePoint" />
            <mxPoint x="2191" y="1234" as="targetPoint" />
          </mxGeometry>
        </mxCell>
        <mxCell id="o6uIntPfX_4QwC0KGmvb-193" value="&lt;font size=&quot;1&quot; style=&quot;&quot;&gt;&lt;b style=&quot;font-size: 15px;&quot;&gt;City&lt;/b&gt;&lt;/font&gt;" style="ellipse;whiteSpace=wrap;html=1;strokeColor=#000000;" parent="1" vertex="1">
          <mxGeometry x="1770" y="1080" width="90" height="40" as="geometry" />
        </mxCell>
        <mxCell id="o6uIntPfX_4QwC0KGmvb-194" value="" style="endArrow=none;html=1;rounded=0;entryX=0.5;entryY=0;entryDx=0;entryDy=0;strokeColor=#000000;exitX=0.5;exitY=1;exitDx=0;exitDy=0;" parent="1" source="o6uIntPfX_4QwC0KGmvb-180" target="o6uIntPfX_4QwC0KGmvb-193" edge="1">
          <mxGeometry width="50" height="50" relative="1" as="geometry">
            <mxPoint x="1911" y="1014" as="sourcePoint" />
            <mxPoint x="2421" y="1224" as="targetPoint" />
          </mxGeometry>
        </mxCell>
        <mxCell id="o6uIntPfX_4QwC0KGmvb-198" value="&lt;font face=&quot;Times New Roman&quot;&gt;&lt;span style=&quot;font-size: 20px;&quot;&gt;&lt;b&gt;Rent&lt;/b&gt;&lt;/span&gt;&lt;/font&gt;" style="rhombus;whiteSpace=wrap;html=1;" parent="1" vertex="1">
          <mxGeometry x="1140" y="120" width="120" height="100" as="geometry" />
        </mxCell>
        <mxCell id="o6uIntPfX_4QwC0KGmvb-199" value="" style="endArrow=none;html=1;rounded=0;exitX=0;exitY=0.5;exitDx=0;exitDy=0;entryX=1;entryY=0.75;entryDx=0;entryDy=0;strokeColor=#000000;" parent="1" source="o6uIntPfX_4QwC0KGmvb-198" target="o6uIntPfX_4QwC0KGmvb-53" edge="1">
          <mxGeometry width="50" height="50" relative="1" as="geometry">
            <mxPoint x="1350" y="75" as="sourcePoint" />
            <mxPoint x="1140" y="100" as="targetPoint" />
          </mxGeometry>
        </mxCell>
        <mxCell id="o6uIntPfX_4QwC0KGmvb-200" value="" style="endArrow=none;html=1;rounded=0;exitX=0;exitY=0;exitDx=0;exitDy=0;entryX=1;entryY=0.5;entryDx=0;entryDy=0;strokeColor=#000000;" parent="1" source="o6uIntPfX_4QwC0KGmvb-124" target="o6uIntPfX_4QwC0KGmvb-198" edge="1">
          <mxGeometry width="50" height="50" relative="1" as="geometry">
            <mxPoint x="1150" y="410" as="sourcePoint" />
            <mxPoint x="1500" y="205" as="targetPoint" />
          </mxGeometry>
        </mxCell>
        <mxCell id="o6uIntPfX_4QwC0KGmvb-201" value="&lt;font face=&quot;Times New Roman&quot;&gt;&lt;span style=&quot;font-size: 20px;&quot;&gt;&lt;b&gt;shop&lt;/b&gt;&lt;/span&gt;&lt;/font&gt;" style="rhombus;whiteSpace=wrap;html=1;" parent="1" vertex="1">
          <mxGeometry x="1050" y="290" width="120" height="100" as="geometry" />
        </mxCell>
        <mxCell id="o6uIntPfX_4QwC0KGmvb-202" value="" style="endArrow=none;html=1;rounded=0;exitX=0;exitY=0.5;exitDx=0;exitDy=0;entryX=1;entryY=0.5;entryDx=0;entryDy=0;strokeColor=#000000;" parent="1" source="o6uIntPfX_4QwC0KGmvb-201" target="o6uIntPfX_4QwC0KGmvb-102" edge="1">
          <mxGeometry width="50" height="50" relative="1" as="geometry">
            <mxPoint x="1390" y="265" as="sourcePoint" />
            <mxPoint x="1180" y="290" as="targetPoint" />
          </mxGeometry>
        </mxCell>
        <mxCell id="o6uIntPfX_4QwC0KGmvb-203" value="" style="endArrow=none;html=1;rounded=0;exitX=0;exitY=0.5;exitDx=0;exitDy=0;entryX=1;entryY=0.5;entryDx=0;entryDy=0;strokeColor=#000000;" parent="1" source="o6uIntPfX_4QwC0KGmvb-124" target="o6uIntPfX_4QwC0KGmvb-201" edge="1">
          <mxGeometry width="50" height="50" relative="1" as="geometry">
            <mxPoint x="1190" y="600" as="sourcePoint" />
            <mxPoint x="1540" y="395" as="targetPoint" />
          </mxGeometry>
        </mxCell>
        <mxCell id="o6uIntPfX_4QwC0KGmvb-207" value="&lt;font face=&quot;Times New Roman&quot;&gt;&lt;span style=&quot;font-size: 20px;&quot;&gt;&lt;b&gt;Live&lt;/b&gt;&lt;/span&gt;&lt;/font&gt;" style="rhombus;whiteSpace=wrap;html=1;" parent="1" vertex="1">
          <mxGeometry x="1390" y="820" width="120" height="100" as="geometry" />
        </mxCell>
        <mxCell id="o6uIntPfX_4QwC0KGmvb-208" value="" style="endArrow=none;html=1;rounded=0;exitX=1;exitY=0.5;exitDx=0;exitDy=0;entryX=0;entryY=0.5;entryDx=0;entryDy=0;strokeColor=#000000;" parent="1" source="o6uIntPfX_4QwC0KGmvb-207" target="o6uIntPfX_4QwC0KGmvb-180" edge="1">
          <mxGeometry width="50" height="50" relative="1" as="geometry">
            <mxPoint x="1530" y="435" as="sourcePoint" />
            <mxPoint x="1320" y="460" as="targetPoint" />
          </mxGeometry>
        </mxCell>
        <mxCell id="o6uIntPfX_4QwC0KGmvb-209" value="" style="endArrow=none;html=1;rounded=0;exitX=1;exitY=0.5;exitDx=0;exitDy=0;entryX=0;entryY=0.5;entryDx=0;entryDy=0;strokeColor=#000000;" parent="1" source="o6uIntPfX_4QwC0KGmvb-115" target="o6uIntPfX_4QwC0KGmvb-207" edge="1">
          <mxGeometry width="50" height="50" relative="1" as="geometry">
            <mxPoint x="1330" y="770" as="sourcePoint" />
            <mxPoint x="1680" y="565" as="targetPoint" />
          </mxGeometry>
        </mxCell>
        <mxCell id="o6uIntPfX_4QwC0KGmvb-210" value="&lt;font face=&quot;Times New Roman&quot;&gt;&lt;span style=&quot;font-size: 20px;&quot;&gt;&lt;b&gt;Live&lt;/b&gt;&lt;/span&gt;&lt;/font&gt;" style="rhombus;whiteSpace=wrap;html=1;" parent="1" vertex="1">
          <mxGeometry x="1670" y="590" width="120" height="100" as="geometry" />
        </mxCell>
        <mxCell id="o6uIntPfX_4QwC0KGmvb-211" value="" style="endArrow=none;html=1;rounded=0;exitX=0.5;exitY=0;exitDx=0;exitDy=0;entryX=0.5;entryY=1;entryDx=0;entryDy=0;strokeColor=#000000;" parent="1" source="o6uIntPfX_4QwC0KGmvb-210" target="o6uIntPfX_4QwC0KGmvb-124" edge="1">
          <mxGeometry width="50" height="50" relative="1" as="geometry">
            <mxPoint x="1820" y="425" as="sourcePoint" />
            <mxPoint x="1610" y="450" as="targetPoint" />
          </mxGeometry>
        </mxCell>
        <mxCell id="o6uIntPfX_4QwC0KGmvb-212" value="" style="endArrow=none;html=1;rounded=0;exitX=0.5;exitY=0;exitDx=0;exitDy=0;entryX=0.5;entryY=1;entryDx=0;entryDy=0;strokeColor=#000000;" parent="1" source="o6uIntPfX_4QwC0KGmvb-180" target="o6uIntPfX_4QwC0KGmvb-210" edge="1">
          <mxGeometry width="50" height="50" relative="1" as="geometry">
            <mxPoint x="1620" y="760" as="sourcePoint" />
            <mxPoint x="1970" y="555" as="targetPoint" />
          </mxGeometry>
        </mxCell>
        <mxCell id="o6uIntPfX_4QwC0KGmvb-214" value="&lt;font face=&quot;Times New Roman&quot;&gt;&lt;span style=&quot;font-size: 20px;&quot;&gt;&lt;b&gt;Paid&lt;/b&gt;&lt;/span&gt;&lt;/font&gt;" style="rhombus;whiteSpace=wrap;html=1;" parent="1" vertex="1">
          <mxGeometry x="1200" y="490" width="120" height="100" as="geometry" />
        </mxCell>
        <mxCell id="o6uIntPfX_4QwC0KGmvb-215" value="" style="endArrow=none;html=1;rounded=0;exitX=0;exitY=0.5;exitDx=0;exitDy=0;entryX=1;entryY=0.75;entryDx=0;entryDy=0;strokeColor=#000000;" parent="1" source="o6uIntPfX_4QwC0KGmvb-214" target="o6uIntPfX_4QwC0KGmvb-102" edge="1">
          <mxGeometry width="50" height="50" relative="1" as="geometry">
            <mxPoint x="1500" y="375" as="sourcePoint" />
            <mxPoint x="1290" y="400" as="targetPoint" />
          </mxGeometry>
        </mxCell>
        <mxCell id="o6uIntPfX_4QwC0KGmvb-216" value="" style="endArrow=none;html=1;rounded=0;exitX=0.25;exitY=0;exitDx=0;exitDy=0;entryX=1;entryY=0.5;entryDx=0;entryDy=0;strokeColor=#000000;" parent="1" source="o6uIntPfX_4QwC0KGmvb-180" target="o6uIntPfX_4QwC0KGmvb-214" edge="1">
          <mxGeometry width="50" height="50" relative="1" as="geometry">
            <mxPoint x="1300" y="710" as="sourcePoint" />
            <mxPoint x="1650" y="505" as="targetPoint" />
          </mxGeometry>
        </mxCell>
        <mxCell id="o6uIntPfX_4QwC0KGmvb-217" value="&lt;font style=&quot;font-size: 14px;&quot;&gt;&lt;b&gt;CityID&lt;/b&gt;&lt;/font&gt;" style="ellipse;whiteSpace=wrap;html=1;strokeColor=#000000;" parent="1" vertex="1">
          <mxGeometry x="1711" y="1160" width="60" height="30" as="geometry" />
        </mxCell>
        <mxCell id="o6uIntPfX_4QwC0KGmvb-218" value="" style="endArrow=none;html=1;rounded=0;entryX=1;entryY=0;entryDx=0;entryDy=0;strokeColor=#000000;exitX=0.5;exitY=1;exitDx=0;exitDy=0;" parent="1" source="o6uIntPfX_4QwC0KGmvb-193" target="o6uIntPfX_4QwC0KGmvb-217" edge="1">
          <mxGeometry width="50" height="50" relative="1" as="geometry">
            <mxPoint x="1950" y="1010" as="sourcePoint" />
            <mxPoint x="1962" y="1336" as="targetPoint" />
          </mxGeometry>
        </mxCell>
        <mxCell id="o6uIntPfX_4QwC0KGmvb-219" value="&lt;font style=&quot;font-size: 14px;&quot;&gt;&lt;b&gt;CityName&lt;/b&gt;&lt;/font&gt;" style="ellipse;whiteSpace=wrap;html=1;strokeColor=#000000;" parent="1" vertex="1">
          <mxGeometry x="1710" y="1200" width="70" height="30" as="geometry" />
        </mxCell>
        <mxCell id="o6uIntPfX_4QwC0KGmvb-220" value="" style="endArrow=none;html=1;rounded=0;entryX=1;entryY=0;entryDx=0;entryDy=0;strokeColor=#000000;exitX=0.5;exitY=1;exitDx=0;exitDy=0;" parent="1" source="o6uIntPfX_4QwC0KGmvb-193" target="o6uIntPfX_4QwC0KGmvb-219" edge="1">
          <mxGeometry width="50" height="50" relative="1" as="geometry">
            <mxPoint x="1823" y="1114" as="sourcePoint" />
            <mxPoint x="1972" y="1346" as="targetPoint" />
          </mxGeometry>
        </mxCell>
        <mxCell id="o6uIntPfX_4QwC0KGmvb-222" value="&lt;font style=&quot;font-size: 14px;&quot;&gt;&lt;b&gt;LastUpdate&lt;/b&gt;&lt;/font&gt;" style="ellipse;whiteSpace=wrap;html=1;strokeColor=#000000;" parent="1" vertex="1">
          <mxGeometry x="1730" y="1250" width="90" height="34" as="geometry" />
        </mxCell>
        <mxCell id="o6uIntPfX_4QwC0KGmvb-223" value="" style="endArrow=none;html=1;rounded=0;entryX=0.5;entryY=0;entryDx=0;entryDy=0;strokeColor=#000000;exitX=0.5;exitY=1;exitDx=0;exitDy=0;" parent="1" source="o6uIntPfX_4QwC0KGmvb-193" target="o6uIntPfX_4QwC0KGmvb-222" edge="1">
          <mxGeometry width="50" height="50" relative="1" as="geometry">
            <mxPoint x="1883" y="1150" as="sourcePoint" />
            <mxPoint x="2032" y="1382" as="targetPoint" />
          </mxGeometry>
        </mxCell>
        <mxCell id="o6uIntPfX_4QwC0KGmvb-224" value="&lt;font style=&quot;font-size: 14px;&quot;&gt;&lt;b&gt;Country&lt;/b&gt;&lt;/font&gt;" style="ellipse;whiteSpace=wrap;html=1;strokeColor=#000000;" parent="1" vertex="1">
          <mxGeometry x="1870" y="1140" width="70" height="30" as="geometry" />
        </mxCell>
        <mxCell id="o6uIntPfX_4QwC0KGmvb-225" value="" style="endArrow=none;html=1;rounded=0;entryX=0.5;entryY=0;entryDx=0;entryDy=0;strokeColor=#000000;exitX=1;exitY=0.5;exitDx=0;exitDy=0;" parent="1" source="o6uIntPfX_4QwC0KGmvb-193" target="o6uIntPfX_4QwC0KGmvb-224" edge="1">
          <mxGeometry width="50" height="50" relative="1" as="geometry">
            <mxPoint x="1943" y="1134" as="sourcePoint" />
            <mxPoint x="2092" y="1366" as="targetPoint" />
          </mxGeometry>
        </mxCell>
        <mxCell id="o6uIntPfX_4QwC0KGmvb-226" value="&lt;font style=&quot;font-size: 14px;&quot;&gt;&lt;b&gt;Country&lt;/b&gt;&lt;/font&gt;" style="ellipse;whiteSpace=wrap;html=1;strokeColor=#000000;" parent="1" vertex="1">
          <mxGeometry x="1960" y="1090" width="70" height="30" as="geometry" />
        </mxCell>
        <mxCell id="o6uIntPfX_4QwC0KGmvb-227" value="" style="endArrow=none;html=1;rounded=0;entryX=1;entryY=0;entryDx=0;entryDy=0;strokeColor=#000000;exitX=0.5;exitY=1;exitDx=0;exitDy=0;" parent="1" source="o6uIntPfX_4QwC0KGmvb-226" target="o6uIntPfX_4QwC0KGmvb-224" edge="1">
          <mxGeometry width="50" height="50" relative="1" as="geometry">
            <mxPoint x="2113" y="1050" as="sourcePoint" />
            <mxPoint x="2262" y="1282" as="targetPoint" />
          </mxGeometry>
        </mxCell>
        <mxCell id="o6uIntPfX_4QwC0KGmvb-228" value="&lt;font style=&quot;font-size: 14px;&quot;&gt;&lt;b&gt;CountryID&lt;/b&gt;&lt;/font&gt;" style="ellipse;whiteSpace=wrap;html=1;strokeColor=#000000;" parent="1" vertex="1">
          <mxGeometry x="1930" y="1050" width="80" height="34" as="geometry" />
        </mxCell>
        <mxCell id="o6uIntPfX_4QwC0KGmvb-229" value="" style="endArrow=none;html=1;rounded=0;entryX=0.232;entryY=0.967;entryDx=0;entryDy=0;strokeColor=#000000;exitX=1;exitY=0;exitDx=0;exitDy=0;entryPerimeter=0;" parent="1" source="o6uIntPfX_4QwC0KGmvb-224" target="o6uIntPfX_4QwC0KGmvb-228" edge="1">
          <mxGeometry width="50" height="50" relative="1" as="geometry">
            <mxPoint x="2113" y="1080" as="sourcePoint" />
            <mxPoint x="2262" y="1312" as="targetPoint" />
          </mxGeometry>
        </mxCell>
        <mxCell id="o6uIntPfX_4QwC0KGmvb-231" value="&lt;font style=&quot;font-size: 14px;&quot;&gt;&lt;b&gt;LastUpdate&lt;/b&gt;&lt;/font&gt;" style="ellipse;whiteSpace=wrap;html=1;strokeColor=#000000;" parent="1" vertex="1">
          <mxGeometry x="2000" y="1120" width="90" height="30" as="geometry" />
        </mxCell>
        <mxCell id="o6uIntPfX_4QwC0KGmvb-232" value="" style="endArrow=none;html=1;rounded=0;entryX=1;entryY=0;entryDx=0;entryDy=0;strokeColor=#000000;exitX=0;exitY=0.5;exitDx=0;exitDy=0;" parent="1" source="o6uIntPfX_4QwC0KGmvb-231" target="o6uIntPfX_4QwC0KGmvb-224" edge="1">
          <mxGeometry width="50" height="50" relative="1" as="geometry">
            <mxPoint x="2173" y="1080" as="sourcePoint" />
            <mxPoint x="1990" y="1175" as="targetPoint" />
          </mxGeometry>
        </mxCell>
        <mxCell id="o6uIntPfX_4QwC0KGmvb-233" value="&lt;font style=&quot;font-size: 14px;&quot;&gt;&lt;b&gt;Continent&lt;/b&gt;&lt;/font&gt;" style="ellipse;whiteSpace=wrap;html=1;strokeColor=#000000;" parent="1" vertex="1">
          <mxGeometry x="1910" y="1210" width="90" height="30" as="geometry" />
        </mxCell>
        <mxCell id="o6uIntPfX_4QwC0KGmvb-234" value="" style="endArrow=none;html=1;rounded=0;entryX=0.5;entryY=0;entryDx=0;entryDy=0;strokeColor=#000000;exitX=0.5;exitY=1;exitDx=0;exitDy=0;" parent="1" source="o6uIntPfX_4QwC0KGmvb-224" target="o6uIntPfX_4QwC0KGmvb-233" edge="1">
          <mxGeometry width="50" height="50" relative="1" as="geometry">
            <mxPoint x="2063" y="1190" as="sourcePoint" />
            <mxPoint x="1880" y="1285" as="targetPoint" />
          </mxGeometry>
        </mxCell>
        <mxCell id="o6uIntPfX_4QwC0KGmvb-236" value="&lt;font style=&quot;font-size: 14px;&quot;&gt;&lt;b&gt;Name&lt;/b&gt;&lt;/font&gt;" style="ellipse;whiteSpace=wrap;html=1;strokeColor=#000000;" parent="1" vertex="1">
          <mxGeometry x="1960" y="1290" width="70" height="40" as="geometry" />
        </mxCell>
        <mxCell id="o6uIntPfX_4QwC0KGmvb-237" value="" style="endArrow=none;html=1;rounded=0;entryX=0.5;entryY=0;entryDx=0;entryDy=0;strokeColor=#000000;exitX=0.5;exitY=1;exitDx=0;exitDy=0;" parent="1" source="o6uIntPfX_4QwC0KGmvb-233" target="o6uIntPfX_4QwC0KGmvb-236" edge="1">
          <mxGeometry width="50" height="50" relative="1" as="geometry">
            <mxPoint x="2153" y="1220" as="sourcePoint" />
            <mxPoint x="1970" y="1315" as="targetPoint" />
          </mxGeometry>
        </mxCell>
        <mxCell id="o6uIntPfX_4QwC0KGmvb-238" value="&lt;font style=&quot;font-size: 14px;&quot;&gt;&lt;b&gt;ContinentId&lt;/b&gt;&lt;/font&gt;" style="ellipse;whiteSpace=wrap;html=1;strokeColor=#000000;" parent="1" vertex="1">
          <mxGeometry x="1840" y="1290" width="100" height="40" as="geometry" />
        </mxCell>
        <mxCell id="o6uIntPfX_4QwC0KGmvb-239" value="" style="endArrow=none;html=1;rounded=0;entryX=0.5;entryY=0;entryDx=0;entryDy=0;strokeColor=#000000;exitX=0.5;exitY=1;exitDx=0;exitDy=0;" parent="1" source="o6uIntPfX_4QwC0KGmvb-233" target="o6uIntPfX_4QwC0KGmvb-238" edge="1">
          <mxGeometry width="50" height="50" relative="1" as="geometry">
            <mxPoint x="2023" y="1240" as="sourcePoint" />
            <mxPoint x="1840" y="1335" as="targetPoint" />
          </mxGeometry>
        </mxCell>
        <mxCell id="o6uIntPfX_4QwC0KGmvb-261" value="N" style="resizable=0;html=1;whiteSpace=wrap;align=right;verticalAlign=bottom;" parent="1" connectable="0" vertex="1">
          <mxGeometry x="580.0000000000005" y="890" as="geometry" />
        </mxCell>
        <mxCell id="o6uIntPfX_4QwC0KGmvb-262" value="N" style="resizable=0;html=1;whiteSpace=wrap;align=right;verticalAlign=bottom;" parent="1" connectable="0" vertex="1">
          <mxGeometry x="578.0000000000005" y="908" as="geometry">
            <mxPoint x="3" y="7" as="offset" />
          </mxGeometry>
        </mxCell>
        <mxCell id="o6uIntPfX_4QwC0KGmvb-264" value="N" style="resizable=0;html=1;whiteSpace=wrap;align=right;verticalAlign=bottom;" parent="1" connectable="0" vertex="1">
          <mxGeometry x="579.0000000000005" y="937" as="geometry" />
        </mxCell>
        <mxCell id="o6uIntPfX_4QwC0KGmvb-267" value="1" style="resizable=0;html=1;whiteSpace=wrap;align=right;verticalAlign=bottom;" parent="1" connectable="0" vertex="1">
          <mxGeometry x="161" y="1174.9999999999995" as="geometry" />
        </mxCell>
        <mxCell id="o6uIntPfX_4QwC0KGmvb-271" value="M" style="resizable=0;html=1;whiteSpace=wrap;align=left;verticalAlign=bottom;" parent="1" connectable="0" vertex="1">
          <mxGeometry x="200" y="1000" as="geometry" />
        </mxCell>
        <mxCell id="o6uIntPfX_4QwC0KGmvb-272" value="M" style="resizable=0;html=1;whiteSpace=wrap;align=left;verticalAlign=bottom;" parent="1" connectable="0" vertex="1">
          <mxGeometry x="200" y="840" as="geometry" />
        </mxCell>
        <mxCell id="o6uIntPfX_4QwC0KGmvb-274" value="1" style="resizable=0;html=1;whiteSpace=wrap;align=right;verticalAlign=bottom;" parent="1" connectable="0" vertex="1">
          <mxGeometry x="659" y="879.9999999999995" as="geometry" />
        </mxCell>
        <mxCell id="o6uIntPfX_4QwC0KGmvb-275" value="N" style="resizable=0;html=1;whiteSpace=wrap;align=right;verticalAlign=bottom;" parent="1" connectable="0" vertex="1">
          <mxGeometry x="590.0000000000005" y="900" as="geometry">
            <mxPoint x="-324" y="-373" as="offset" />
          </mxGeometry>
        </mxCell>
        <mxCell id="o6uIntPfX_4QwC0KGmvb-276" value="N" style="resizable=0;html=1;whiteSpace=wrap;align=right;verticalAlign=bottom;" parent="1" connectable="0" vertex="1">
          <mxGeometry x="364.00000000000045" y="472" as="geometry" />
        </mxCell>
        <mxCell id="o6uIntPfX_4QwC0KGmvb-277" value="1" style="resizable=0;html=1;whiteSpace=wrap;align=right;verticalAlign=bottom;" parent="1" connectable="0" vertex="1">
          <mxGeometry x="1820" y="937.9999999999995" as="geometry" />
        </mxCell>
        <mxCell id="o6uIntPfX_4QwC0KGmvb-279" value="" style="resizable=0;html=1;whiteSpace=wrap;align=left;verticalAlign=bottom;" parent="1" connectable="0" vertex="1">
          <mxGeometry x="1500" y="870" as="geometry">
            <mxPoint x="119" y="-908" as="offset" />
          </mxGeometry>
        </mxCell>
        <mxCell id="o6uIntPfX_4QwC0KGmvb-280" value="N" style="resizable=0;html=1;whiteSpace=wrap;align=right;verticalAlign=bottom;" parent="1" connectable="0" vertex="1">
          <mxGeometry x="282.00000000000045" y="157" as="geometry" />
        </mxCell>
        <mxCell id="o6uIntPfX_4QwC0KGmvb-281" value="1" style="resizable=0;html=1;whiteSpace=wrap;align=right;verticalAlign=bottom;" parent="1" connectable="0" vertex="1">
          <mxGeometry x="280" y="449.99999999999955" as="geometry" />
        </mxCell>
        <mxCell id="o6uIntPfX_4QwC0KGmvb-282" value="1" style="resizable=0;html=1;whiteSpace=wrap;align=right;verticalAlign=bottom;" parent="1" connectable="0" vertex="1">
          <mxGeometry x="220" y="-31.000000000000455" as="geometry">
            <mxPoint x="121" y="126" as="offset" />
          </mxGeometry>
        </mxCell>
        <mxCell id="o6uIntPfX_4QwC0KGmvb-283" value="N" style="resizable=0;html=1;whiteSpace=wrap;align=right;verticalAlign=bottom;" parent="1" connectable="0" vertex="1">
          <mxGeometry x="343.00000000000045" y="126" as="geometry" />
        </mxCell>
        <mxCell id="o6uIntPfX_4QwC0KGmvb-284" value="N" style="resizable=0;html=1;whiteSpace=wrap;align=right;verticalAlign=bottom;" parent="1" connectable="0" vertex="1">
          <mxGeometry x="345.00000000000045" y="152" as="geometry" />
        </mxCell>
        <mxCell id="o6uIntPfX_4QwC0KGmvb-285" value="N" style="resizable=0;html=1;whiteSpace=wrap;align=right;verticalAlign=bottom;" parent="1" connectable="0" vertex="1">
          <mxGeometry x="1524.0000000000005" y="64" as="geometry" />
        </mxCell>
        <mxCell id="o6uIntPfX_4QwC0KGmvb-288" value="N" style="resizable=0;html=1;whiteSpace=wrap;align=right;verticalAlign=bottom;" parent="1" connectable="0" vertex="1">
          <mxGeometry x="1546.0000000000005" y="125" as="geometry" />
        </mxCell>
        <mxCell id="o6uIntPfX_4QwC0KGmvb-289" value="N" style="resizable=0;html=1;whiteSpace=wrap;align=right;verticalAlign=bottom;" parent="1" connectable="0" vertex="1">
          <mxGeometry x="1588.0000000000005" y="128" as="geometry" />
        </mxCell>
        <mxCell id="o6uIntPfX_4QwC0KGmvb-290" value="N" style="resizable=0;html=1;whiteSpace=wrap;align=right;verticalAlign=bottom;" parent="1" connectable="0" vertex="1">
          <mxGeometry x="1598.0000000000005" y="500" as="geometry" />
        </mxCell>
        <mxCell id="o6uIntPfX_4QwC0KGmvb-291" value="N" style="resizable=0;html=1;whiteSpace=wrap;align=right;verticalAlign=bottom;" parent="1" connectable="0" vertex="1">
          <mxGeometry x="1527.0000000000005" y="469" as="geometry" />
        </mxCell>
        <mxCell id="o6uIntPfX_4QwC0KGmvb-293" value="1" style="resizable=0;html=1;whiteSpace=wrap;align=right;verticalAlign=bottom;" parent="1" connectable="0" vertex="1">
          <mxGeometry x="1610" y="419.99999999999955" as="geometry" />
        </mxCell>
        <mxCell id="o6uIntPfX_4QwC0KGmvb-294" value="1" style="resizable=0;html=1;whiteSpace=wrap;align=right;verticalAlign=bottom;" parent="1" connectable="0" vertex="1">
          <mxGeometry x="1539" y="419.99999999999955" as="geometry" />
        </mxCell>
        <mxCell id="o6uIntPfX_4QwC0KGmvb-295" value="1" style="resizable=0;html=1;whiteSpace=wrap;align=right;verticalAlign=bottom;" parent="1" connectable="0" vertex="1">
          <mxGeometry x="875" y="367.99999999999955" as="geometry" />
        </mxCell>
        <mxCell id="o6uIntPfX_4QwC0KGmvb-296" value="1" style="resizable=0;html=1;whiteSpace=wrap;align=right;verticalAlign=bottom;" parent="1" connectable="0" vertex="1">
          <mxGeometry x="819" y="417.99999999999955" as="geometry" />
        </mxCell>
        <mxCell id="o6uIntPfX_4QwC0KGmvb-297" value="1" style="resizable=0;html=1;whiteSpace=wrap;align=right;verticalAlign=bottom;" parent="1" connectable="0" vertex="1">
          <mxGeometry x="738" y="370.99999999999955" as="geometry" />
        </mxCell>
        <mxCell id="o6uIntPfX_4QwC0KGmvb-298" value="N" style="resizable=0;html=1;whiteSpace=wrap;align=right;verticalAlign=bottom;" parent="1" connectable="0" vertex="1">
          <mxGeometry x="781.0000000000005" y="418" as="geometry" />
        </mxCell>
        <mxCell id="o6uIntPfX_4QwC0KGmvb-299" value="N" style="resizable=0;html=1;whiteSpace=wrap;align=right;verticalAlign=bottom;" parent="1" connectable="0" vertex="1">
          <mxGeometry x="881.0000000000005" y="392" as="geometry" />
        </mxCell>
        <mxCell id="o6uIntPfX_4QwC0KGmvb-300" value="N" style="resizable=0;html=1;whiteSpace=wrap;align=right;verticalAlign=bottom;" parent="1" connectable="0" vertex="1">
          <mxGeometry x="1154.0000000000005" y="876" as="geometry" />
        </mxCell>
        <mxCell id="o6uIntPfX_4QwC0KGmvb-301" value="N" style="resizable=0;html=1;whiteSpace=wrap;align=right;verticalAlign=bottom;" parent="1" connectable="0" vertex="1">
          <mxGeometry x="1256.0000000000005" y="906" as="geometry" />
        </mxCell>
        <mxCell id="o6uIntPfX_4QwC0KGmvb-302" value="1" style="resizable=0;html=1;whiteSpace=wrap;align=right;verticalAlign=bottom;" parent="1" connectable="0" vertex="1">
          <mxGeometry x="1189" y="876.9999999999995" as="geometry" />
        </mxCell>
        <mxCell id="o6uIntPfX_4QwC0KGmvb-303" value="1" style="resizable=0;html=1;whiteSpace=wrap;align=right;verticalAlign=bottom;" parent="1" connectable="0" vertex="1">
          <mxGeometry x="1123" y="879.9999999999995" as="geometry" />
        </mxCell>
        <mxCell id="o6uIntPfX_4QwC0KGmvb-304" value="1" style="resizable=0;html=1;whiteSpace=wrap;align=right;verticalAlign=bottom;" parent="1" connectable="0" vertex="1">
          <mxGeometry x="1116" y="906.9999999999995" as="geometry" />
        </mxCell>
        <mxCell id="o6uIntPfX_4QwC0KGmvb-305" value="1" style="resizable=0;html=1;whiteSpace=wrap;align=right;verticalAlign=bottom;" parent="1" connectable="0" vertex="1">
          <mxGeometry x="1792" y="940.9999999999995" as="geometry" />
        </mxCell>
        <mxCell id="o6uIntPfX_4QwC0KGmvb-306" value="1" style="resizable=0;html=1;whiteSpace=wrap;align=right;verticalAlign=bottom;" parent="1" connectable="0" vertex="1">
          <mxGeometry x="1747" y="964.9999999999995" as="geometry" />
        </mxCell>
      </root>
    </mxGraphModel>
  </diagram>
</mxfile>
